<svg xmlns="http://www.w3.org/2000/svg" viewBox="0 0 326.7 373.3"><defs><style>.cls-1{fill:#7c7c7c;stroke:#fff;stroke-linecap:round;stroke-linejoin:round;stroke-width:2px;}</style></defs><title>Badenwüttenberg</title><g id="Ebene_2" data-name="Ebene 2"><g id="Ebene_1-2" data-name="Ebene 1"><path id="DEU1573" class="cls-1" d="M229.1,366l-1.4-.7-4.6-.9-1.6-.9-1.8-2.2-.7-1.7-.4-1.6-.4-1.4-1-1.3-1.1-.7-3.4-.4-5.9-3-2-.4-4.7-.1-2-.6-10.5-6.9-.4-.7-.7-3.6-.6-1.4-.8-.4-3-.6-11.3-8.2-4.3-.7.8,1.6,3.6,3.8,2,1.4,4.3,1.8,2,1.3,1.4,2.1.8,2.2.6,2.3.9,2.4,2.4,3.7.1,1.5-2.5.3h-6l-12.1-1.4-2.1.8-1.7,1.9-4,1.3-4.2.4-2.7-.7-3.2-2.4-1.6-1.6v-1.1l2-.5-2.8-2.7-3.6-2.1-2.9-.1-1,3.2.9,1-5.7.1-.5-2.3-.9-1.1-.4-1.3.3-1.1,1.5-2.2.3-.6-.8-1.6-1-.2-1.2.2-1.1-.2-.9-1.3-.8-1.9-1.1-1.6-1.4-.5-1,1.1-.5,3.5-1.4.9-1-.8-.4-2-.1-2.1-.2-1.1-2-1-2.7-.1-1.7,1,1,2.5-1.7.9-5.8,1.2-1.3-.1-.8.5-1.5,2.2-.5,1.2-.8,3.2-1.2,1.1L97.9,346l-1.1,1.3-.1,1.2.4,1.1.3,1.4-.7,1.8,1.7.6.6.1,2.8,2.1,2.2,1.3,1.9-.1,1.7-.8,1.5-1.1,1.6-.8,5.3-.9,1.5.2,1.7.8,1,.1-.6,3.8-.7-.4-.1-1-.1-.2h-.4l-.6.2-.4.3-.3.9.2.8.3.6v.6l-.1,1.1.1,1.1-.2,1.2-.7,1.3-1.4.5-1.2-1.5-1.3-2.2-1.7-1.6-3.3.3-3.3,2.3-1.3,2.7-.1.8-3.4.6-6.9-.1-4.2-1.1-1-.7-.8-1.5-.6-1.6-.6-.7-1.2-.1-2.8-.9h-2l-5.9,1-.5.4-.6.8-.7.7-2,.6-2.4,1.3-.9.7-.9,1.1-.4.8-.5.7-1.1.7-4.9,1.1H44.6l-.3-.7-.2-1.5-.4-1.5-.6-.7-7.1-.4-1.5-.8-2,3.1-1.7,2.1-2.1,1.2-9,1.8-2.4-.3-5.6-3,2.8.1,1.2-1.2,1.4-4-2.5.3-5.5,1.6.4-1.6.3-.6-.3-1.5-.5-.9-.7-.6-.7-.8-2.4-4.9-1.5-2.1L2.1,352l-.4-.8-.4-1.7L1,346l.4-1,1.8-1.9.6-1.1.1-2.6-1.4-5.7.3-2.2,1.6-5.3.6-.8,1.5-.8.2-1.8-.6-3,.1-.7-.2-.9.1-.6.4-.7.7-.7.4-.8.7-1.7.2-.7-.1-2.6.6-2.2,2.9-3.1,1-2-.2-5L8,289.8,7.6,283l.7-3.2.7-2.4.8-1.5.8-1,.5-1.3.2-2.3.8-2,6.8-9.7,1.2-2.4.7-2.7.2-3.4.7-3.4,1.8-1.4,2-1.1,1.5-2.4.1-2.3-.5-2.2-.7-2.1-.4-2,.2-2.1.7-4.4.6-1.8.8-1.6.7-1.1.5-1.6.2-3.1.6-1.5,1.3-1.3,2.7-2.2v-1.1l-1.3-3.5.1-5.7.9-5.4,4.6-7.2,1.2-.9,1.8-.6,1.7-1.4,3-3.6,1.3-.9,1.4-1.4,1.2-1.5.5-1.3.1-3.2.6-1.5,1.2-.4h3.1l.8-.3.6-.6.3-.9.2-1.5.5-.9.5-.5.3-.4h.9l4-2.2.7-.6,1.3-2.3,5-13.6,3.3-6.5,2.3-2.5,3.3-1.2,3.5-3.8,2.3-3.6,8-16.6.5-1.6,2.1-15.9.7-2.9,1.2-1.2,1.3-.7,7.6-8.9.3-2.1-2.5-.9.2-1.4,3.9-8.9V69.7l-.7-2.7-.1-1.4.2-.3,1-2.7.3-.3-1.1-2-1.8-.6-2-.2-1.8-.8V57.6l2.3-1.2V55.3l-1.5-3.1L100.7,45l-2.1-3.5.9-4.1,3.6-1.5.9-.1.4.1,1.4.4,2.6,2.1,7.4,7.7,2.3-.7,1-.8,1.3-.5.4-.2.3-.4.2-.7v-1l-.3-1.2-1-3.9v-.3l-.8-3.4v-.5l.4-.4,7.6-2h.5l.3.3v1.1l.3.4,1.1,1.6.2.9-.1.6-.6,1.2v.4l.5,1.8,1.3,3.3.3.5.5.8.8.7,3,2,2.1,1,1.8.3,2.3-.2h.5l.4.2.5.8.4,1.4.5.7.5.3,1.4.1,5.4-.6.3.8v.4l-.1.9-.5,1.3-.4.6-.8,1.1-.3.2h-.4l-.6-.4-.5-.5-.6-.8h-.3l-.4.2-1.7,2-.2.5-.2.5-.1.6.1,1.4.4,2.6-.1.9-.5.5-1.1.6-.2.2-.3.4-.2.9-.1,1.3.1.5.2.4.4.3,1.5.5h.9l.8.5.7-.2,1-.7,1.9-2.1,1.3-1.8.3-.9.4-2,.2-.4.2-.3.3-.1.4.3.1.9.2.3.4.1.7-.2,2.2-1.5.4-.7.1-.6-.2-1.1-.5-1.1-.5-.8-.6-.9-.1-.5.3-.4,2.5-2.7v-.4l.5-.2,5.8-.1.9.1.3.1,1.4.3,1.1-.4,2.5-2.5.9-.1,1.1.2,1.3-.2.6.2.2.2.8,1.1.3.3.6.2.6-.2v-.5l-.2-.8-1-1.9-1.1-1.6-.2-.4-.5-1.2-.5-.7-1.8-2-.4-.7L171,39l.1-.4.6-.3,1.5,1.4.6.1h.2l1-1.7.9.7h.3l6.2-1.3,1.6.3,6.6-.1.6-.2.5-.4.5-.9.2-.6.4-1.4.2-.4.3-.4,1-1,.2-.2-.4-2.7.3-.7.5-.5,1.6-.9.8-.3.9-.1,1.5.1,1.2-.3,3.1-1.4.6.3,1.3,1.4.6.2.5-.1,2-1.9-.4-1.2-.4-.8v-.8l1.3-6.8-.4-.5-.3-.3-2.1-.9-.8.2-.3.4-.1.3-.3,1.3-.3.5-.2.4-.8.4-.8-.1-.2-.4v-.7l.4-1.2.1-.6-.2-.6-.3-.4-.6-.3-3.7-.6-.9-.3-.6-.6-.1-1.2.6-.9.2-.9L197,6l.6-.9,1.1-1.2,1.2-.8,1.4-.4,5.3.3,3.9-1.4,3.9-.6,2,.1,5.9,2.7,1.3.2,1.3-.4.6-.4,3,2,1.1-.3,1.9-.7.9-.6.5-.4.4-.2.3.1.4.3.2.7v.4l-.1.4-.6.8-.1.5.1.9.3.9v.6l-.6,1.3V11l.2.9-.2.6-.5.3-.3.6.2.8-.1.7-.8,1.7-.1.7.1.4.5.4.8.6,1,.4,1.5.2.7-.2.5-.4.2-.8.1-1.1.2-.9.3-.2,1.2-.6.3-.3.4-1.1.3-.2h.3l.2.3.1.7.1.9.1,1,1.1,2.4.5.4.5-.2.3-.3.6-1.1,2.2-2.1.4-.4.5-.4,1.7-.7.9-.6.5.4.7,1.1,3.1,3.8.1.3.1,1.1-.1,3.5.1,1.4.2.6.5.7,3.8,4.1.5.8.2.5.1.7-.3.8-.1.4-.9.9-.9,1.4-.2.5-.1,1.1.2.9-.1.9-.5.7-1.5,1.6-.3.5v.5l.3.5.8.5.6.1,1-.5.4-.6.2-.6.2-1.1.2-.4.4-.3,1.1-.4.4-.4.3-.6.6-.8.7-.6.4-.1.4.2.5.5.2.7-.3.8-.4.6v.3l1.5,1.2.4.7.2,2.2.2,1.4v1.6l-.2.8v1.4l.5,3.3v.8l.2.2,1,.2,7.8-.2.9-.5,1.1-.8,3.1-3.5.2-.5-.1-.9-.1-.4-1-1.3.5-.7,2.6-2.1,1.2.6.6.5.1.6-.7,1.8v.3l.2.4.8.5.7.3.9-.1.3.2.5.4.1.4v.6l-.3.9-.6,1.3.2.9,1.1,2.4-.8,2.8-.4.8-.7.8-.2.3-.1.4.3.3,2.1.8.5.2.4.6,3.1,7.8.1.4-.2.3-.8-.2-.6-.2-.6-.4-.8.1-.5.1-1.9,2.4-.1,3-.2.6v1l.3,1.2,1,1.4.8.5.5.3.7.1.3.3.2.4V82l-.8,2.3.1.6.3.9.7,1.6.3.9-.1,1.1-.2.3-.3.2h-.5l-1-.5-.9-.6-.4.1-.2.7.1.6.3.6,1.5,1.7.1.7V96l.2.6.4.6.7.8.3.4.2.4-.3.6-.4.3h-.5l-.4.3.1.3.3.4.9.8,1.9,1.4.9.8,2.2,3.2,1.5,1.5h.5l1.2-.8.8-.1.5.2,1.7,1.7.2.2.1.7.1.9-.2,1.9-.2.7-.2.6-.3.5-.3.9-.4.4-.7.3h-.9l-.4.1-.3.4.2.4.4.3,1.2.7,1,.4h.5l.3.5-.4,1.3v.4l.4.7,1.7,1.4v1l-.1.5-.3.7v.5l.3.3.5.3,2,.7.5.1.8-.1.8.2,1.9,1.2.6.1h1.3l.3.3.3.5.4,1.3.4,1.6.6.9L317,137l.8,1.7,1.9,2.2.2.3.4,1.4.3.4.6.5.5.7.5,1.5.5,1.5.1.5-.1.5-.9.7-1.2.4-.3.2v.4l1.1,1,.1.7v1.2l-.4,4.5-.5,1.6.1.8.9,1.5.2.5v.5l-.1.7-.5,2.1-.3.6-.7.6-.4.4-.2.7v1l.1,2.2v.9l-.2.5-.4.5-.2.5-.1.8v.9l.1.8.1.5.8,1,2.1,1.1.8-.1.4.3.4.9.2,1.1,2,3.7-4.7,4.4-1.5.8-.3-.2-.3-.6-.1-.4.1-.7.6-1.3-.1-.9.1-.5.4-.1.3-.5-.3-.5-.3-.3-.4-.2h-.5l-.7.6-5,5.7-.4.3-.3.1-.4-.3-.7-1.2-.8-2-.4-.5-.5-.2-2.3.2-.6-.2-.4-.2-.5-.4-.9-1.1-.6-.5-.4.1-.4.5-.8,1.4-1.4,1.7-.1,1.9.5,1.2.4.6.5.6.2.4.2.6.4.6.4.3.6.2.7.4.5.5.6.6.6.6.9.5.4.5.1,1-.5.6-.2.3-.9.3-.6.3-.2.6v.7l.2.7.3.6.5,1,.3,1.2.1,1v.8l-.2,1-1.1,3.1-.1,1,.3.4.6.4-.5.2-4.2.2-.9.3-.6.4-.6.8-.4.7-.3,1.9-10.6,6.4-.6-.1-.6-.4-.2-.6-.1-1-.3-.9-.4-.4-.3-.2h-.6l-.4.1-1.4,1-.8.7-.3.2-2,.5-1.3.1-.4.1-.6.5-.9,1-.5.7-.6,1.3v.6l.1.7.3.9-.8.6-6.1,8.5,1,1.8h1l.3.1.2.3,2,4.5,1.5,2.6,1.5,2.3.5.9,1.7,5.9,4.3,19.8,2.9,6.6.4,2.1.1,1.8-.3,4.3-.8,3.6-3.2,9-.8.5-.6.6-.3.5v.6l.2,1,.9,1.9.2.4,1.3,1.3.1.6-.1,3.9-.2,1.2-.1.8-.5.7-.1.5-.3,2-.3.7-.6.6-.4.5v.2l.2.6.5.2.5-.1.2-.1.3.1.6,1.2.4,1.5,2,4.6-1,.5-.2.3-.4.9-.6.6h-1.8l-.4.1-.4.5-.5.9-.2.5.1.5.7.7.8.6.3.7.3.7.5.4h.9l.2.1.4.7.1.7.1,4.7.4,3,.4,1.7.4,1.1.1.4v.5l-.1.8-.4,1-.2.3-.4.2-1-.1-2-.8h-.4l-.2.4-.2.7-.1,2.4-1.1,1.3-.7-1.3-.4-1-.5-1.9-.3-.4-.6-.2-.7-.2-1.3.1-2.7.8-2.3,1.3-2,.8-1.8.4-2.6.1-2.6-.7-3.6-1.6-.8-.2-1.3.4-2,1.1-8.1,7.3-4.9,2.5-3.1-1.1H237l-1.7.8-.4.7-.2.7-.5.3-.8.3-3,.6-.8.4-.5.7Z"/></g></g></svg>