<svg xmlns="http://www.w3.org/2000/svg" viewBox="0 0 528.8 547.8"><defs><style>.cls-1{fill:#7c7c7c;stroke:#fff;stroke-linecap:round;stroke-linejoin:round;stroke-width:2px;}</style></defs><title>Bayern</title><g id="Ebene_2" data-name="Ebene 2"><g id="Ebene_1-2" data-name="Ebene 1"><path id="DEU1591" class="cls-1" d="M319.8,26.3l2.9-.3.9.4.6,1,.4.6,1.2,1.9,2.2,1.5.4.8-.2.9-.1.7.5,3.4.3.4,1.1.4,4.4,3,.9.3.4.1,1.5-.2,3.1.9.8,1.5-2.7-.2,2.5,2.6.9,1.5.4,2.4-.2,2.2-.8.8-1.1.8-1.4,2,1.2,2,5.3,3.4,2.7,2.9,1.2,1.9L350,68l.3,2.5-.8,3.9.1,2.5.9,2.6,1.6,1.4,1.7,1,1.6,1.4,1,1.7.2,1.7v1.5l.4,1.1,16.4,8.9h.1l1.7,1.6,4,.4L381,102l.3,2.5-.7,2.2-.2,1.9,4.5,2.6,1.5.6.7,1.2-.3,3.3-.9,2.6-2.5,4.6-.8,2.7-2.2-.7-.6,2.4-.1,3.5-.3,2.8-1.8,1.7-4.5,2-1.3,2.5.6,1.8,1.1,2.1,2.3,3.3,1.5,1.4,1.7,1.1,3.6,1.8,1.5.8.9,1.7.1,2.3-.9,2,.2.3.9.4-.5,1.3-.1.4,1.1,1.4,2.6,1.4,1.2,1.3.7,1.8.5,3.7.5,2,.7,2,.7,1.5.8,1.3,1.2,1.2,1.2.4,1.2-.2.8.7.1,2.8.3,5.5.6,2.7,1.2,2.4,2.2,1.8,5,2.4,2.2,2.3,3.5,8,1.8,1.7,2.1.8,6.4,1,2.1-.3-.5-2.2,1.5-.4,4.1,1.1,1.9,1,1.6,1.3,3,3.2,1.9.8.6,1.4.2,1.6.5,1.6,3.4,4.1,1.4.8,10.2,13.9,1.4,3.3,1.8,2.8,3,1.8,6.6.3,2.2.8,1.3,1.2,3.3,4.4,4.7,4.7,1.2,2.9v4.7l1.6,2.5,3.1,3,3.5,2.5,2.5,1.2,1.1-2.9,1.1-1.8,1.5-.7,2.5.5,1.9,1.2,1.8,1.5,1.9,1,2-.2.2,3.1,1.2,3,1.7,2.6,1.9,1.9,2,.9,4.1.7,1.5.8,2.5,4,5.3,10.5,2.1,2.2-3.2,6.9-.3,1.6.6-.2,1.1,2.3.6.5,1.3.6-1.4,1.4-.3,2,.6,5.3-.1,2.8-.3,2.3-.7,2.2-1.9,4.1-.5.7-.9.9-.9.4-2.2.4-.4-.1-.9,1.9-1,4.4-.2-.3-4.5-2-1.7-2.6-1.7-1.3-1.9-1-11.3-3.2-3.6.5-3.6,1.3-1,1-.6,1.1.1.6.3.7.5,3,1,1.6.2,1.4-.3,1.6-1.5,3.1-.5,1.5-.2,1.6.2,4.6-.2,1.7-.5,1.2-.5.8-.2.8-.6,3.5-1.5,2.6-10.7,9.3-3.6,2.1-15,2.6L442.5,386l-1.8,1.2-4,4-3.5,1.9-1.7,1.4.1.4-6,1.1-1.6.9-1,1.1-2,3.2-1.4,1.6-4.4,3.1-.4.5-1.6,2.4-.6.3h-.7l-.7.2-.7,1.2-.2,2.2.5,2.2,1,1.9,1,1.6,7.7,8.1,1.6,3.6.3,2,.6,1.7.9,1.3,2.6,1.6,2.2,2.2.9.5,1.8,1.8,3.7,8.6,2.4,3.5.5.5-7.1,11.4-.5,1.2-.3,1.1v1l-.2,1.1-.7,1.1-2,3.2,1.7,1.8,6.1,1.1,1.6-.3,2.8-1.2,1.7.3,1.3,1,1.4,1.6,2.1,3.7.9,2.3.3,2.1-.1,2-.2,1.9-.3.4-1.3,3.2-.1.4-1.7,2.3-.3-.1.1,3.7.1.1-1,2.6-.3.5v2.8l.1,1,.2.9.4.8.3,1v1.3l-3.1,3.7-.8.7H438l-.7-.4-.6-.6-1.1-.6h-1.1l-.9.5-.9.3-1.2-.4-5.4-4.1-4.9-5.5-.9-.7-1.1-.4-1.6-.3-2.7-2.2-.6-3.9,1.3-3.8,3-1.5-2.2-2.1-2.8-1.8-1.7-2.1L413,483l-1.8.3-6.2-1.6h-3.8l-3.9.9-2.1,1.1-4.8,4.3-1.7.8-2.3.4h-2.3l-1.5-.8-3.2-2.6-.9-1-.6-1.4-1.1-3.4-.6-1-1.7-.3-4.3,1.6-1.9.3-6.3-1.3-2.3.3-2.5,1.3-1.1.2-1.1-1-.6-1.8.3-1.1.7-1,.4-1.2.3-1.8.3-.7-.2.1-1.6.7-1,.5L351,476l-1.7.7.2,1.4.4.9.8,1,.9.9.5.4.3.9.2,4.3-.1,1.5-.4,1-3.1,4-.9.2-25-1.1L314,494l-1.3.7-1,2.8-1.2.3-6.1-1.2-8.9-.1-4.7-.9-2-.1-.4.5-3,2.6-.8,1.7-.8,3.8-.6,1.5-2,2.2-2.3.9-5.1.9-2.5-.8-2.7-.4-2.4.6-5.2,5.9,1.4.4,1.1.8.5,1.2-1,1.6-1.7.7-4.8.1-2,.7-2.1,2-1.4,1.9-1.6,1.7-2.4,1.1-2.6-.3.3-4.4-2.4-1-2.7.8-7.1,4.9-2.1.7-11.4-.2-1.5-.9-1.1-2.2h.2l.4-.7.2-1.1v-1.1l-.3-.7-5.5-5.9-5.6-2.6-.7-1.3,3.5-2.4.9-1.1-2.5-1.9-1.1-.7-1.5-.1-1.6.5-4.4,2-3.2.4-.9-.3-.6-.8-.3-.8-.5-.5-14.3-5.5h-2.7l-1.5,1.1-2.2,3.1-1.4,1.1-1.2.2-4.7-.7-1.7-.8-.9-.6-.5-.8-.2-1.4.4-1,.5-.8.1-.6-.4-1.5-.4-.3-.9.3-1.8.4-1.6.6.1,1.4,1,1.8.7,1.8-.1,1.5-1.1,6.4,1.5.8.9,1.1.6,1.4.5,2v3.5l-1,3.6-1.6,3.2-1.8,2.4-.9.7-2.3.8-1.1.7-.7,1-2.4,4.9-2,2.7-2.1,1.9-4.9,3-2.3.9-8.7,1.1-.5-.3.5-1,1-1.8.4-.3,1.4-.4.6-.6.2-1v-1l-.3-1,2-6,.1-2.9-2-1.1-4.8.9-1.3,1.4-.5.4h-.5l-1.1-.7-.6-.1-1.4.7-.8.6-.8.1-1-1.1-.6-1.5-.1-1.7-.3-1.7-1.2-1.4,2.5-1.9.5-1.7-1-1.9-5.3-7.9-1.3.6-.9.8-1,.5-1.2-.8-.2-.9v-1l-1-2.1-1.3-1.4-1.2-1.5-.3-2.7-1.3,1.1-1.6.3-3.3-.3-3.2-1.2-.6.2-1.3.8-.9.1-2.2-1.1-.4-1.8.2-1.9-.4-1.9-1.3-1.4-1.5-.6-1.6.2-1.6.8-2.4,2.8-1.3,3-4.6-1.2L72.6,498l-2.9-1.5.5-.7.8-.4,3-.6.8-.3.5-.3.2-.7.4-.7,1.7-.8h.7l3.1,1.1,4.9-2.5,8.1-7.3,2-1.1,1.3-.4.8.2,3.6,1.6,2.6.7,2.6-.1,1.8-.4,2-.8,2.3-1.3,2.7-.8,1.3-.1.7.2.6.2.3.4.5,1.9.4,1,.7,1.3,1.1-1.3.1-2.4.2-.7.2-.4h.4l2,.8,1,.1.4-.2.2-.3.4-1,.1-.8v-.5l-.1-.4-.4-1.1-.4-1.7-.4-3-.1-4.7-.1-.7-.4-.7-.2-.1h-.9l-.5-.4-.3-.7-.3-.7-.8-.6-.7-.7-.1-.5.2-.5.5-.9.4-.5.4-.1h1.8l.6-.6.4-.9.2-.3,1-.5-2-4.6-.4-1.5-.6-1.2-.3-.1-.2.1-.5.1-.5-.2-.2-.6v-.2l.4-.5.6-.6.3-.7.3-2,.1-.5.5-.7.1-.8.2-1.2.1-3.9-.1-.6-1.3-1.3-.2-.4-.9-1.9-.2-1v-.6l.3-.5.6-.6.8-.5,3.2-9,.8-3.6.3-4.3-.1-1.8-.4-2.1-2.9-6.6L120,385.1l-1.7-5.9-.5-.9-1.5-2.3-1.5-2.6-2-4.5-.2-.3-.3-.1h-1l-1-1.8,6.1-8.5.8-.6-.3-.9-.1-.7v-.6l.6-1.3.5-.7.9-1,.6-.5.4-.1,1.3-.1,2-.5.3-.2.8-.7,1.4-1,.4-.1h.6l.3.2.4.4.3.9.1,1,.2.6.6.4.6.1,10.6-6.4.3-1.9.4-.7.6-.8.6-.4.9-.3,4.2-.2.5-.2-.6-.4-.3-.4.1-1,1.1-3.1.2-1v-.8l-.1-1-.3-1.2-.5-1-.3-.6-.2-.7V330l.2-.6.6-.3.9-.3.2-.3.5-.6-.1-1-.4-.5-.9-.5-.6-.6-.6-.6-.5-.5-.7-.4-.6-.2-.4-.3-.4-.6-.2-.6-.2-.4-.5-.6-.4-.6-.5-1.2.1-1.9,1.4-1.7.8-1.4.4-.5.4-.1.6.5.9,1.1.5.4.4.2.6.2,2.3-.2.5.2.4.5.8,2,.7,1.2.4.3.3-.1.4-.3,5-5.7.7-.6h.5l.4.2.3.3.3.5-.3.5-.4.1-.1.5.1.9-.6,1.3-.1.7.1.4.3.6.3.2,1.5-.8,4.7-4.4-2-3.7-.2-1.1-.4-.9-.4-.3-.8.1-2.1-1.1-.8-1-.1-.5-.1-.8v-.9l.1-.8.2-.5.4-.5.2-.5V301l-.1-2.2v-1l.2-.7.4-.4.7-.6.3-.6.5-2.1.1-.7v-.5l-.2-.5-.9-1.5-.1-.8.5-1.6.4-4.5v-1.2l-.1-.7-1.1-1V280l.3-.2,1.2-.4.9-.7.1-.5-.1-.5-.5-1.5-.5-1.5-.5-.7-.6-.5-.3-.4-.4-1.4-.2-.3-1.9-2.2-.8-1.7-4.6-3.8-.6-.9-.4-1.6-.4-1.3-.3-.5-.3-.3h-1.3l-.6-.1-1.9-1.2-.8-.2-.8.1-.5-.1-2-.7-.5-.3-.3-.3v-.5l.3-.7.1-.5v-1l-1.7-1.4-.4-.7v-.4l.4-1.3-.3-.5h-.5l-1-.4-1.2-.7-.4-.3-.2-.4.3-.4.4-.1h.9l.7-.3.4-.4.3-.9.3-.5.2-.6.2-.7.2-1.9-.1-.9-.1-.7-.2-.2-1.7-1.7-.5-.2-.8.1-1.2.8h-.5l-1.5-1.5-2.2-3.2-.9-.8-1.9-1.4-.9-.8-.3-.4-.1-.3.4-.3h.5l.4-.3.3-.6-.2-.4-.3-.4-.7-.8-.4-.6-.2-.6v-2.8l-.1-.7-1.5-1.7-.3-.6-.1-.6.2-.7.4-.1.9.6,1,.5h.5l.3-.2.2-.3.1-1.1-.3-.9-.7-1.6-.3-.9-.1-.6.8-2.3v-.6l-.2-.4-.3-.3-.7-.1-.5-.3-.8-.5-1-1.4-.3-1.2v-1l.2-.6.1-3,1.9-2.4.5-.1.8-.1.6.4.6.2.8.2.2-.3-.1-.4-3.1-7.8-.4-.6-.5-.2-2.1-.8-.3-.3.1-.4.2-.3.7-.8.4-.8.8-2.8-1.1-2.4-.2-.9.6-1.3.3-.9v-.6l-.1-.4-.5-.4-.3-.2-.9.1-.7-.3-.8-.5-.2-.4v-.3l.7-1.8-.1-.6-.6-.5-1.2-.6-2.6,2.1-.5.7,1,1.3.1.4.1.9-.2.5-3.1,3.5-1.1.8-.9.5-7.8.2-1-.2-.2-.2v-.8l-.5-3.3v-1.4l.2-.8v-1.6L105,175l-.2-2.2-.4-.7-1.5-1.2v-.3l.4-.6.3-.8-.2-.7-.5-.5-.4-.2-.4.1-.7.6-.6.8-.3.6-.4.4-1.1.4-.4.3-.2.4-.2,1.1-.2.6-.4.6-1,.5-.6-.1-.8-.5-.3-.5v-.5l.3-.5,1.5-1.6.5-.7.1-.9-.2-.9.1-1.1.2-.5.9-1.4.9-.9.1-.4.3-.8-.1-.7-.2-.5-.5-.8L95,156.8l-.5-.7-.2-.6-.1-1.4.1-3.5-.1-1.1-.1-.3L91,145.4l-.7-1.1-.5-.4-.9.6-1.7.7-.5.4-.4.4-2.2,2.1-.6,1.1-.3.3-.5.2-.5-.4-1.1-2.4-.1-1-.1-.9-.1-.7-.2-.3h-.3l-.3.2-.4,1.1-.3.3-1.2.6-.3.2-.2.9-.1,1.1-.2.8-.5.4-.7.2-1.5-.2-1-.4-.8-.6-.5-.4-.1-.4.1-.7.8-1.7.1-.7-.2-.8.3-.6.5-.3.2-.6-.2-.9v-1.1l.6-1.3v-.6l-.3-.9-.1-.9.1-.5.6-.8.1-.4v-.4l-.2-.7-.4-.3-.3-.1-.4.2-.5.4-.9.6-1.9.7-1.1.3-3-2-.6.4-1.3.4-1.3-.2L57,131.6l-2-.1-3.9.6-3.9,1.4-5.3-.3-1.4.4-1.2.8-1.1,1.2-.6.9.8,2.7-.2.9-.6.9.1,1.2.6.6.9.3,3.7.6.6.3.3.4.2.6-.1.6-.4,1.2v.7l.2.4.8.1.8-.4.2-.4.3-.5.3-1.3.1-.3.3-.4.8-.2,2.1.9.3.3.4.5L48.8,153v.8l.4.8.4,1.2-2,1.9-.5.1-.6-.2-1.3-1.4-.6-.3-3.1,1.4-1.2.3-1.5-.1-.9.1-.8.3-1.6.9-.5.5-.3.7.4,2.7-.2.2-1,1-.3.4-.2.4-.4,1.4-.2.6-.5.9-.5.4-.6.2-6.6.1L23,168l-6.2,1.3h-.3l-.9-.7-1.5-2.7-2.2-2-.4-.7v-.6l.9-1.2,1.1-1.2.9-.8.4-.2.6-.7.3-.8-.1-1-1.1-4.5-.2-1.4.1-.9.5-.2,1.2-.1.4-.1,1-.5.6-.7.2-.3v-.5l-.4-1.4v-.7l.1-.7.3-.8,1.4-3,.1-.6-.3-.5-1.7-.7-.9-.6-.3-.6v-.7l.3-.7,1.5-2,.5-1v-.6l-.2-.6-.3-.5-.7-.4-.9.1-.4.2-.5.1-.5-.1-.5-.3-.5-.7-.4-.8-.5-1.7-.1-1.1V126l.3-1.3V124l-.2-.6-.4-.1-.5.5-.9,1.6-.3.2h-.2l-.3-.4-.2-.7-.4-.5-1.4-4.4-1-2.8-1.4-4.2-.1-.7.2-12.5,2.3.9.5-.3-.1-.3-.8-1.5L8,96.9,8.1,95l-1-1.7-.6-3.7-.1-.3-.5-.6-1.1-.2-1,.2-.5.6-.6-.1-.9-.7L1,88l.3-.4,1-1.3.3-.2.4.2.5-.1.4-.2.3-.3.2-.7v-.6l.1-2.5v-.8l.2-.6.4-.7.6-.4.5-.3,3.6-.8,5.5-2.6.3-.1.7.1.4.2,1.4,1.2.6.3,1.5.5.2.2v.5l-.7,1.1-.2.7h.3l.8-.4,1.6-1.1L24,76.6l.3-.5V74.8l.1-.7.2-.3.5-.3,3.4-1h1.3l1.1.3,4.9.1,1.1.4.5.1,1.4-.1h.6l4.2,2,1.1.7.7.8.3.7.5,1.4.2.4.7,1.1.7.9,2.6.4,1.7-.3,6.6-2.8.8-.8.3-.6-.6-3.1-.1-.5.2-.9.3-.9,1.3-2.6.2-.6v-.3l-.4-.5-.3-.1-1.9-.2-.3-.2-.3-.4-.1-.7.2-1.3.8-2.4.1-.7-.3-3.4.1-1.1.2-.4.3-.1,1,.4.6.2h.4l1-.6h.3l.5.2.3.4.5.8.5.4h.2l1.7-.5h.9l.4.2.3.3.8.3h1.6l2-.7,3.3-1.1.5-.7-.6-.6-.2-.9V53.7l.8-2.3.9-1.2.7-.8,1.5-.7,1.1-.2,1.9-.9,1.8-1.2.7-.7L85,45l.1-1.6L85,41.9l-.2-1.6-.4-2.4L87,28.5l1.4-2,.5-.2,1.3-.7.4-.1.5.3.3.3.8,1.2.6.7.9.8.7.3.5.1h.9l1.3-.1,6.4-2.6,6.8-4,2.2-1.9,1.3-2.1,1.1-2.3,2.3-3.9.2-.4.3-1.1.7-1.8,5.9-6.7L126.1,1l.2.3.1.5-.1,1,.3.7.4.3.6.1,5.3-.5,1,.1.6.3.6.9.7.5.3.4.3.4.2,1,.4,1.2.2.9.4.5.7.5,8.8,3,1,.5.5.6.1.4.4,1,.1.8-.1,1.6.2.4.2.4,1.6,1.3.5.6.5.7.4.7.5.5,2.9,2.4.2.6-.1.4-.8.9-.1.5V28l.6,1,.4.3.4.3,2.1.2,1-.2,1-.4.7-.2.3.3.3.9.3.8.4.6.5.6,3,2.5.2.5.1.5-.1.6.2.4.3.1,1.4.1,1,.2.5-.1,1-.8,1.8-.3,1.5,3.2.9,1.1,1.5.8.4.5.1.6v.8l.2,1.1.5,2.1.1,1.1V48l-.2.6-.1.9-.2.6-.2.8.1.6.4,1,1,1.9v.7l-.1.5-.3.5.1.8.5.9.9,1h4.9l2.7.8,1.4,1.1,1.5.9.7.1.5-.1.2-.4V59.4l.5-3.6.8-.9h.5l.4.1.7.5.6.1h.8l3.5-.8.5.1,1.5.8,1.3.3h.7l.6-.2.5-.7.2-.8.1-.6-.1-1-.2-.9L204,51l-.4-.2-1.9-.5-.8-.4-.6-.7-.4-1.2-.2-.4-.8-.3-1.9.1-.9-.2-.6-.5-1.3-1.5L194,45l-1.3-.9-1.2-.5-.8-.7-.5-.7-.1-1.1.4-4,.5-.9.5-.6.9-.1,1.5.7.6.1.4-.2.3-.4.5-1,1.6-2.6.5-.6.5-.3.6.1,1,.5.6.1.8-.2.4-.2,1.4-1,.4-.1.4-.1,2,.4.8-.4.5-.3.7-.1.6.3.3.3.4.7.4.6.6.1h.4l2.8-1,.9-.1.8.2,3.7,5.5.5.4.6.5.3-.2.2-.6.2-1.3.4-.2,2.9.4.8.5.6.6.5.9.4.3h.5l1.5-.7.5-.1,1.5-.2.4-.1.3-.3.6-.8.4-.4,1.2-.3.4-.1.3.3.3,1,.4.7.3.2.7-.1.4.2.3.2.9,1.5.4.7.5.7.3.8v.4l-.2.5L236,44.4l.8,1.3,5.4,5.1,1.1-2,.5-.3,1,.9.5.4,2.5.7h.8l.4-.3.2-.3v-.7l-.2-1.3.3-1,.7-1.1.2-.7v-.6l-.2-.4-.6-1.1v-.6l.2-.8,1-2.2.1-.5-.2-.9V36.9l.3-.2.8-.2.2-.5-.3-1.2-.1-1.4-.3-.8-.8-1-.2-.4-.1-.5.1-.7-.1-.5-.4-.7-.2-.5v-.6l.4-3v-.6l-.2-1.4-.1-.4-.4-1-.2-.8.3-.6v-.7l-.4-.9-.5-1.8,3-1.5,2.1-.5,2.3-1.4.3-.5.2-1.4.4-.7.6-.4.8-.3,1-1.2,6.9.4,1.8.5,1,1.8.3,1-.1.4-.2.3-1,.7-.7.5-.2,5.8.1.7.2.8,1.1.5,1,.9.9,1,.5.2.5.1.4-.2.5-.2.5.1.7.3.3.4.2.5.2,1.4L274,29l.3.4.7.6.9.5,1.7,1.5.9.4.6.2.8-.3,1.5-.2.4-.2.3-.3.2-.3.3-.9.3-.4.4-.2.9-.1,1.4.1,3.3,1.3,12.8-2.7,1.9-.6.5-.9.8-.2,1.8-.2h.7l.6.1.4.8.9.7,1.2.4.3.2.2.3-.2.4-.1.4.2.5.6.1.7-.4.3-.3,1.2-.5,2-.5.5-.3,1-.7,2.6-1.4Z"/></g></g></svg>