<svg xmlns="http://www.w3.org/2000/svg" viewBox="0 0 73.8 59.5"><defs><style>.cls-1{fill:#7c7c7c;stroke:#fff;stroke-linecap:round;stroke-linejoin:round;stroke-width:2px;}</style></defs><title>Berlin</title><g id="Ebene_2" data-name="Ebene 2"><g id="Ebene_1-2" data-name="Ebene 1"><path id="DEU1599" class="cls-1" d="M45.6,4.6l.1.9-.2,1.6-.1,1V9.9l.4.7L53,19l2.3,1.8,1.4.5.9.9,1.6.8,2.3.3.1,1.4-2.5,6L58.9,32l.3.6,4.1-.4,1.5.7,2,2.6,4.3,2,.7.6,1,1.1v.6l-.2.4-1.1.9-.1,1.2v1.1l-.2.7-.3.6L69,46.3l-.4.5-.5.6-.4,1.2v1l.3,1.6-.1.9-.1.7-.2.4-.4.5-.4.3-2.5.8-.7.6-1.4,3.1h-1L61,58v-.4l-.2-2.4-.4-2.7-.6-1.1-.6-.4-1.2.1h-.6l-2.7-.9L52.6,49l-4.1-1.7h-.9l-.6.2-.6.7-.6.3-.9.1-1.2-.2-.5-.3-.4-.6-.3-.6L42,45.7l-.6-.3-.5-.2-1,.2-1.7.6-.7.5-.2.4-.1.5.1,1,.2.9.1,1-.2,1.3-3.5-.1-2-.9-.4-.5L30.8,49l-1.2-1.1-.6-.8-.3-.2-1,.2-2.6,1-.9-.3-.6-1.4-.4-.7-.2-.2-.9.5-3,1.2-.6.1H18l-.9-1.1-1.4-.8-.8-.3h-.6L9.8,47.3l-.6.6-.4.6-.7.3L4.3,48l-1.1-.5L1.4,46.1,1,45.7v-.5l.2-.3,1-1.3.3-.5v-.7l.2-.4.6-.6.4-.4v-.2l-.5-1.1-.1-.4-.2-1v-.6l.2-1.1.2-1.1.4-.9.3-.3.8-.4.3-.3,3-3.5v-1L6.4,26l.2-5,.5-2.6.1-1.6-.1-1-.3-.7.1-.5.7-1.8.6-.4.8.3,4.6,2.1,1-.1v-.4l-.2-.6-.3-.6-.3-.8v-.6l.2-1,1-2.9.3-.3,3.2-.4,1-.6,1.2-1.1.4-.9.4-.8.3-1,.3-.3.4-.2h1.2l.3.1-.3.6-.1.3L24,4l.1.4L24,6.1l.2.4.6.6,1.8.8,4.1.3,1.1-.3.6-.2.2-.4.1-.4.6-1.1,2.6-2.1L38,5.1l.7-.1.5-1.1.3-.4L42,1.1l.6-.1.3.4.3.7.5.6,1.7,1.6.2.3Z"/></g></g></svg>