<svg xmlns="http://www.w3.org/2000/svg" viewBox="0 0 381.5 394.5"><defs><style>.cls-1{fill:#7c7c7c;stroke:#fff;stroke-linecap:round;stroke-linejoin:round;stroke-width:2px;}</style></defs><title>Brandenburg</title><g id="Ebene_2" data-name="Ebene 2"><g id="Ebene_1-2" data-name="Ebene 1"><path id="DEU3487" class="cls-1" d="M340.2,39.4l.8,3.4.1,1.6.1,3.3.4,1.8.6,1.1,1.7,1.4.4,1,1.4,1.4L342.9,60l-.8,1.2-1.2.6-1,1.6-.8,2.2-.3,2.5.4,2.9.6,2.6.3,2.6-3.3,10.3-.3,1.5L335,91.3l-3.3,3.5-6.4,5.1-6.6,3.5-5.3,3.9v1.1l.6,1.9,1.4,6.4.2,2.2-.4,3.4-1.2,2.2-2.9,2.5,1.3,2.6,1.9,1.5,2.3.7,2.4.2,2.2.9,3.5,4.2,3,1.6,11.6,8.6,1.6,2,3.8,7.4,1.1,1.1,2.1.9L351,163l6.5,2.6,7,7.9,3.3,2.8-3,6.4-.8,4.1,2,1.9.5,1.9-1.8,4.2L362,199l-5.6,5,.6,7.1,2.6,7.8,2.3,5.1-.7,3.3,2.5,2.7,3.7,1.9,3.1.8,3,1.3,1.7,3.1v3.7l-2.2,2.8v1.1l1.6,2.5-.4,2.5-1.2,3.2-.6,4.6,1.1,2.6,7,5.3-2,2.5-.8,1.5-.4,1.6-.2,1.6-.4,1.7-2.4,4.3-.6,1.7-.3,10.8-1,3.4-1.6,3.2-2,2.7-6.3,6.4-1.4,3,.3,3.8,1.8,2.7,2,1.4,1.5,2,.4,4.7,1.1,4.4,2.5,2.9,5.3,4.4,1.4,3.1,1,4.4.2,4.6-1.3,3.6-2.1,3.3-.9,3.4.3,1.3-4.7-.2-4.7-2-2.7-1.6-2.4-.5-2.3.1-4.7,1.4-14.4,7.2-4.2,1-3.7-2.5-3.9-1.4-5.2-.7-6.8,1.6-4.3,2.5-1.4,1.2-4.2,5.6-.7,1.3v1.3l-.2,1.4-1.7,4-6.1,8.8-1.9,3.2-.4.2-.6.2-.5-.3-1.1-.2-.8-.3-18.8,2.4-3.8-.4-12.7-.9-5-1.7-1.5-.2-1,.1-1.3.3-1.3-.5-1.8-2.7-1.5-1.2-1.3-.7-.8-1.1-1.6-1.3-5.1-2.5-1.4-.1-1.1.4-1,1.1-1.7.8-10,3.5-2,.6-1.4-2.4-.8-.4-1.4-.3-.5,1.1-1.2-.2-.5.7-.6.5-.7,1-.6-.5L208,385l-.3-1.3v-.5l.2-.4.2-.4,1.2-1.1.6-.8.5-1.8-.1-2.5.3-1.9-.2-1.5-.7-.6-.3-1.1.4-.7,1.2-.7.4-.4.3-.8v-1l-.2-1.2-.6-2.5-.3-1.1-.4-.8-2.3-1.4-1.1-1.5v-1.1l.3-.5.2-.8.2-1.3-.3-.7-.3-.5-1.3-.9-1.4-1.2-.4-.2-.4-.1-.7.5-.5.2-.9-.4-1.5-1-3-3.8-1.3-.4,2.3-4.1.9-.9,6.5-5.2,3-4.1.4-2.1-.8-2-1.1-1.8-.6-2-.2-1.3v-4.6l.1-1.3.6-1.2,3.3-5.3,3.8-4.2.9-2.2-2.1-.9-3.6-.3-.6.2-.6.5-.9,1.7-.5.7-.8-.4-.5-.5-1-1.2-.8-.2-7.2.9-2-.8-6.1-4.3-.8-.8-.5-1-.6-.9-1.3-1.2-1.2-.6-2.2-.4-5-.1-.9-.2-.5-.3-.9-2.8-.5-1.2-1.6-1.1-4.2-.5-1.2-.3-9.7-6.1-4.2-2.4-.7-.1-.6.1-.2.4v.5l-.3.6-.5.6-1.3.6-1.4.9-1.5,1.5-5-1.1-1.9-1.1-5.1-4-2.2-3-.6-.5-.5-.2h-.5l-.3.3-.2.3-.4.9-.5.4-.6.2H127l-.7-.1-.5-.3-1.3-1.2-3.2-2.2-1-.9-.6-.7-.1-.9v-1l-.3-1.2-6.8-9.3-2-2.2-2.2-1.1-.4-.4-.4-.6-.7-2.4-2.9-2.8-.3-.5-1-2.1-.9-2.8v-.5l.2-.6.8-1.3,1.4-4.4,2.5-2.7.4-.9-.3-.3-.6-.9-.4-1-.3-.6-.4-.3-1.1-.1-.6-.6-.6-.9-.3-2.8v-1.3l.1-.9.1-.5.8-1.7.4-1.5.3-.9,1.3-2.4.2-.7-.1-.5-.3-1.4-.2-1.4.4-1.3v-.6l-.2-.8v-.5l.2-.4,1.3-2.5.4-1,.8-2.4.1-.9v-.7l-.2-.4-.7-1.1-.2-.6v-.4l.2-.3,1.2-.8.6-1,1-2.7,1.3-2.3.2-1.2-.1-1.4.1-1.3.2-.7.5-1.1-.1-.3h-.3l-.8.4-.9.2-.9-.1-.7.3-.6-.1-.6-.5-1.6-2.8-.6-.8-.8-.7-.6-.2H103l-.3.2-.3.3-.2.5-.2,1.6-.2.5-.5.7-.6.6-.9.4-1.5.3-1.3-.4-.7-.7-.2-.6-.2-.9v-.7l.1-.5.6-.7.3-.4.8-1-.1-.4-.3-.3-.5-.1H95.7l-1,.2h-.6l-.6-.2-.1-.4.1-.3,2.9-4.5.2-1.2.3-1.8.2-4.2.2-1.8.3-1.1h.5l2.1.1.9-.3,1.2-.7.5-.8.7-1.4,1.1-3.4.2-1.7v-1.5l-.2-.5-.4-.4-1-.9-.3-.4-.3-.6-.2-1.3-.2-.8-.3-.5-.9-1.4-.3-.8v-.6l.1-.5.4-.8,1.1-1,.4-.6v-.5l-.2-.6-.5-.5-.3-.6-.3-.7-.3-1.3.1-.7.2-.5,3.6-3,.4-2v-1.2l-2.1-6.9-.6-1.3-.6-.7-1.2-.4-1.4-.6-.5-.2-.4.1-3.8,1.1-1.1.1-1.6-.2.1-2.1-.5-1.3-.8-.8-.4-.3-.4-.1-7.6,1-2.8-.1-1.6.7-1.9-.4L73.3,119l-1.5-.5-2-.3-1.1-.4-7-4.8.2-.8,1.3-1.9.5-2.1-1.3-.8-3.4-.2L57.5,106l-3.3-5.1-1.7.4-2.8,1.6-1.1.4-1.9-.3-.5-1.1-.2-1.7-.8-2.3-1.2-1-3.6-.1L38.9,96l.9-.9.6-1.8-.1-1.6L39.2,91l-4.8,1.3-5.3-2.1-2.5-.4-2-.7-3.3-3.4-2.5-.8-2.3.5L13,87.9l-2.1.6-2.3-.4L6.8,86.9l-4-4.7L1,78.8l2.4-.3,2.5.5H9.5L12,80.2l2.1.3.1-2.6.4-2,1.7-.8h3.5l3.1,1.7,2.8,1.7,2.9-.3,2.2-1.7.8-2.9-.5-1.3-.3-3.1L30.5,68l-.6-1-.8-1-.3-1.3.7-1.8,4.8-4.5L36.4,57l5.9-2.2,3.8-.3,1.3.5,3.4,2.8L52.2,61l2.2-1.5,2.3-.8h2.4l3.4.3-.4-2.6L60,54.7l.9-.6,1-.4,3,.7,2.5-3.1,4.2-2.1,1.9-.5,2,.9,2.2-2.2,1.9-1.5,1.7-.2,1-2.9.2-2.5,2.8-2,1.6-2.9h.6l1-.4,1.9-1,1.6-.3.9-.3h.5l.6.2,1.7,1.9.4.2.8-.3.4-.3,2.2-1.8.8-.3h.6l.6.1.6.4.8,1,.9,2.1.8,1.2.8.4,6.9,1.7,3.9,2.3.7.4,3.3,2.6.4.5.6.6.2.4.7.6,3.1,1.8.3.3,1,1.6.3.3.7.3,1,.1,3.9-.3,1.7-.6,1.6-.2,11.6,2.9.6.1,1.4.7,3,3,4.5,1.3,2.7.1,1,.6.2,2.6v1.2l.2.9.5.6.6.3.5.2h.8l4.8-1.1,1.5.1.8.2.7.4,1.6,1.3.7.4h.9l1.7-.1.8-.3,1.1-.4.7-.1,2.9-.1.9-.2.5-.3.4-.3h.4l.4.4.3.8-.2.5-.3.4-.7.5-.5.7.2.6.6.5,2.6,1.1,2.8-.4,2.8-2.8.5-.8,1.1-1.4.6-.5,3.2-2.1,1.5-1.4,1-.7.3-.4.5-.7.2-.7.3-1.4.2-.4.9-.9,1-.5.6-.4.3-.6.3-.3.5-.4.9-.3.7.1.8.4,1.4,1.8.7,1.4.3.4,1.4.7h3l.4-1.9.1-1.3.2-.5.3-.9,1.1-2.4.5-.9,1.3-1.2,1.7-.9,2.9-.3,2.3.5,2.4,1.1,2,1.3,2,.5,1.9-.7,5.7-4.6,1.2-.4,1.2-1.2,1.4-1.9,1.5-4.2,2.1-4.5.6-3.4.8-2,1.5-1.5,2-1.1,3.9-.1,2.5-2.3,2-3.7,6.6-5.7,3.9-.6,3.7.3,3.2-1.4-.5-2.3-2.7-5.2.2-3.4,1.8.3,2.8,4.3,5,2,.2,4,3.1,5.7.6,2.5,1.7,2.6,7.6-.6,6.5.5,2.3.9,2.8.6,2.2-3.1,2.7-.6,3.9,2,4.5-.3,2.6.6.1,4.8-.5,3.4-1.7,4-3.9,6.2L309,47l-.1,1.4v2.2l4.5.7,4.2,1,7.1.7,1.6-1.1.6-2.6,2.9-1.4,3.1-3.9,7.3-4.6ZM243.4,164.3l-.2-.3-1.7-1.6-.5-.6-.3-.7-.3-.4-.6.1-2.5,2.4-.3.4-.5,1.1-.7.1-2.1-1.4-2.6,2.1-.6,1.1-.1.4-.2.4-.6.2-1.1.3-4.1-.3-1.8-.8-.6-.6-.2-.4.1-1.7-.1-.4-.4-.8.1-.3.3-.6-.3-.1h-1.2l-.4.2-.3.3-.3,1-.4.8-.4.9-1.2,1.1-1,.6-3.2.4-.3.3-1,2.9-.2,1v.6l.3.8.3.6.2.6v.4l-1,.1-4.6-2.1-.8-.3-.6.4-.7,1.8-.1.5.3.7.1,1-.1,1.6-.5,2.6-.2,5,1.7,3.1v1l-3,3.5-.3.3-.8.4-.3.3-.4.9-.2,1.1-.2,1.1v.6l.2,1,.1.4.5,1.1v.2l-.4.4-.6.6-.2.4v.7l-.3.5-1,1.3-.2.3v.5l.4.4,1.8,1.4,1.1.5,3.8.8.7-.3.4-.6.6-.6,4.5-2.2h.6l.8.3,1.4.8.9,1.1h.5l.6-.1,3-1.2.9-.5.2.2.4.7.6,1.4.9.3,2.6-1,1-.2.3.2.6.8,1.2,1.1.7,1.1.4.5,2,.9,3.5.1.2-1.3-.1-1-.2-.9-.1-1,.1-.5.2-.4.7-.5,1.7-.6,1-.2.5.2.6.3.5,1.2.3.6.4.6.5.3,1.2.2.9-.1.6-.3.6-.7.6-.2h.9l4.1,1.7,2.1,1.2,2.7.9h.6l1.2-.1.6.4.6,1.1.4,2.7.2,2.4v.4l.2.5h1l1.4-3.1.7-.6,2.5-.8.4-.3.4-.5.2-.4.1-.7.1-.9-.3-1.6v-1l.4-1.2.5-.6.4-.5,1.9-1.6.3-.6.2-.7V202l.1-1.2,1.1-.9.2-.4v-.6l-1-1.1-.7-.6-4.3-2-2-2.6-1.5-.7-4.1.4-.3-.6.2-1.3,2.5-6-.1-1.4-2.3-.3-1.6-.8-.9-.9-1.4-.5-2.3-1.8-7.2-8.4-.4-.7v-1.8l.1-1,.2-1.6-.1-.9Z"/></g></g></svg>