<svg xmlns="http://www.w3.org/2000/svg" viewBox="0 0 55.8 110"><defs><style>.cls-1{fill:#7c7c7c;stroke:#fff;stroke-linecap:round;stroke-linejoin:round;stroke-width:2px;}</style></defs><title>Bremen</title><g id="Ebene_2" data-name="Ebene 2"><g id="Ebene_1-2" data-name="Ebene 1"><path id="DEU1575" class="cls-1" d="M8,74.9l.7.1,2-.6h.6l3,1.9,6.4,2.6,1.5.4,1.1-.1.3-.1.3-.3.5-.1,2.4-.2,1.4.2.2.2.2.4v.8l.2.5.6.5,2.4,1.5.5.2,3.1-.1,1.3.3.2.2,1.6,1.6,2.2,1.6,3.7,1.9,1,.2.9-.3.2-.2.3-.6.3-1.1.5-1.2.5-.8.5-.4h.3l.4.2,1.1,1.1,2.5,3,.3.4v.5l-.4.4-1.2,1.1-.3.8.4,1.1,2.7,2.8.2.6.2.6-.2.4-.8,1-.2.8-.3,1.1-.1,2.5-.1,1-.2.6-1.6,1.9-3.8,2.7-.9.5-5.3-4.1-.1.3.1,1.1-.3.4-.6.3-1.5.5-1-.1-1.1-.3-5.2-3.3-.6-.2h-.3l-1.1.4-4.3.8-1.6-.3-.2-.3V99l-.1-.6-.2-.5-.8-.4-4.2-5-1.7-2.7-.3-.6-.2-.9v-.5l-.2-3.3-1.6-3.1-.7-.6-2.3.2-1.3-.1L7.4,79.1,2.9,77.2l-1-2-.3-1.1L1,72.8l2.5-.4,1.2.3ZM7.7,18.8l.9-4.9L8.1,13,5.3,5.8,4.4,4.7,3.3,2.3,2.9,1,8.2,3l2.4.4,4.5-.2.6.2.1.4-.7.9-.3.5-.3,1.2.1,1,.3.9.9,1.8.4,1.4.7,3.8.1,1.3-.1,1.2-.1,1-.2.6L14.9,22l-2.3,2.2-.3.1-.5-.4-.7-1.5h-.3l-.8.2-.6-.5L7.7,18.8Z"/></g></g></svg>