<svg xmlns="http://www.w3.org/2000/svg" viewBox="0 0 65.9 61.3"><defs><style>.cls-1{fill:#7c7c7c;stroke:#fff;stroke-linecap:round;stroke-linejoin:round;stroke-width:2px;}</style></defs><title>Hamburg</title><g id="Ebene_2" data-name="Ebene 2"><g id="Ebene_1-2" data-name="Ebene 1"><path id="DEU1578" class="cls-1" d="M64.9,55.2H60.3l-1.1.3-1,.7-2.5,3.2-.2.5-6,.4-1.8-.4-1.8-1.2L44.8,57l-1.3-1.4-2.2-.7-1.3-1-1.7-2.1-.8.1-4.1,1.4-.7.4-.3.4.2,1.3-.1.4-.3.3-1.8,1.1-2.8,1.2-1.1.2-.7-.1-2-1.4-.6-.1-.7.1-2.1,1.2h-.7l-.4-.5v-.6l-.1-1.7-.3-1.9-.6-1-.4-.3-.6-.1-.8.3-.6.5-1.4,2-.4.3-.4-.2-3.6-3.4-.8-1-.7-1L8,48.5l-.5-1.1L7,45.7l-.2-.6-.3-.4-.7-.5-.3-.3-.2-.4-.1-.7L5,42.4l-1-1-.4-6.6-.1-.7,6,1.4,1.4-.6L9.6,32.5,5.5,30.1,1,29.6,1.9,26l.2-1.1.1-1.2.2-1,1-1.2.2-.4.2-1.4.2-.5.4-.1h.5l1.3.4.9.5.2.3.9.6.3.3.1.6-.3,1.5-.2,1.4.1.3.2.4.8.4,1.4-.8,10.7-8.9,2.8-.8,3,.6h.4l.6-.3.5-.5,1-2.8.5-.8.6-.4,1.3-.4.8-.2h.7l1.4.3.9-.6.5-.5,1.4-5.9.4-.7.5-.4.4-.2.3-.1,5.4,1.3.6-.1.6-.3,1.9-1.8.7-.4L49,1l.6.1.5.2.2.2.1.5-.2.9-.2.5L48.8,5.1,47.7,7.3l-.4,1.2-.2.5.2.4.3.7L51.5,13l.1.1.1,1v1.2l.3,1,.6.5.4.3.3.5.2.7-.2,1.4-.2.6-.3,1-.2.6-.2,2.3-.1,2.5-.2.7-.5.5-1.1.4-1.9.5-.5.5-.1.6.2.9.7,3,.1,1.6v1.2l.2,1,.3.6,1.2.7,1.8.5,1,1.1,2.7,4.4,2.4,1.3.8.8,3.8,4.1.3-.1h.6l.3.9.5,3.3Z"/></g></g></svg>