<svg xmlns="http://www.w3.org/2000/svg" viewBox="0 0 269.9 389"><defs><style>.cls-1{fill:#7c7c7c;stroke:#fff;stroke-linecap:round;stroke-linejoin:round;stroke-width:2px;}</style></defs><title>Hessen</title><g id="Ebene_2" data-name="Ebene 2"><g id="Ebene_1-2" data-name="Ebene 1"><path id="DEU1574" class="cls-1" d="M238.1,48.8,236,50.5l-.4.8-.3,1.2v.7l.4,1.4.2,1.1.1.4.2.4.6.6.3.4.3.9.3,1.6-.1,1.6.2.7.4.2.4-.1.5.2.7.5.8,1.4.7.6.6.4h.5l1.2-.1.3.1,2.4,1,1.7.2,1,.4.3.5.2.5-.6,1.4v.9l.3.6.2.4,1.8,1.4.2.8.3,2,.3.5.5.3.4.1.5.1.7.5.4.2.6.1.7.3.6.2,1.1.1.6.2,1,.7.7.3.6.1,1-.1,1,.2,1.5.9,1.2,1.1,2.1,1.2,1.5.6.2.3v.7l-.3.9-1.7,2.1-.6,1.7-.1.8v1l-.5,3.6-.5.7H265l-.2-.3-.1-.8-.3-.3-.6-.5-.1-.4.2-.6-.1-.4-.9-1.2-.4-.5-.8-.1-1.1.1-2.4.7-.7.5-.2.3.7.6.2.3.5,1.3.2.4.3.2.4.1,2,.4.4.3v.8l-.4,1.5-1.4,2.3-.6,1.4-.3,1.2L259,104v1l.1.6.4.1,1.1.1.4.1.4.3.6.6.3.2.5.1,1.4.1.4.2.2.3.4.8.8,1.1.2.5.2.8-.1.6-1.6,3.7-.3.5-.3.2-2.5-.2-2.4.5-1.1-.1-.4-.2-.6-.4-.2-.6.2-.8-.1-.4-.2-.1h-.3l-1.2.5H255l-1.2-.5h-3.3l-1.3.3-2.7,2-.3,2.3.3,1.1.7.6.5.7.6,1.2.3,2.1-.1.9-.4.5-1.7.5-1.3.2-3.9-.4-.3-.1-.4-.4-.4-.2-.5.1-.8.2-.3.5-.1.5-.1,1.1.2.5.3.3h.4l.3-.3.5-.6.3.2.2.6-.1,2,.1.9.3.4h.4l.3-.2.6-.7.2-.4.4-.6.6-.5.6-.1h.4l.5.2,1.1.8,1.3,1.1.3.5.4.7.5,1.6.4.6.9,1.1-2.9,3.5-.4.6-.3.8.4,1.3-.1,1.7-.3.6-.5.3h-.5l-.7.2-1,.5-.6.3-2.2.3-1.6.7-.6.4-.3.4v.9l-.5,1.3-.2.5-.1,1.1.3,1.5.2,1.4-.2.4h-.2l-.5-.4-.3.1-.5.3-.5.2-.6,1.6,1.2,1.4.4.8v1.4l-.1,1.1-.1.6-.4,1-1.5,2.7-.4,1.2-.1.8.2.8v.4l-.7,1-.3.4-.8.4-.4.4-.6.7-.7,1.5-.3.9-.1.9.1.8-.1,1.5.2,1.1.3.5.5.1.8-.3.8-.4h.4l.5.1,1.7,1.2.9.3,1,.2.5-.1.4-.1.3-.3.3-.9.4-.8-.1-.3-.2-.5-.9-1-.2-.4-.1-.5.1-.5.4-.7.4-.2,1.7-.5.8-.4,1.4-.9.7-.3.8-.1.4.1,1.8.6,1.9.2,1.1.3.5.3.4.3.2.5,1.2,3.1.3,4-.4.7-.3-.3-.5.1-.7.4-1.1,1.2-.3.7v.6l.2.3.2,1.1-.2,3,.1,1.1.2.8.7,1.9-.1.8-.9,3-.2,1-.2.7.1.4.3.5.8.1-.7,1.8-.3,1.1-.2.4-2.3,3.9-1.1,2.3-1.3,2.1-2.2,1.9-6.8,4-6.4,2.6-1.3.1h-.9l-.5-.1-.7-.3-.9-.8-.6-.7-.8-1.2-.3-.3-.5-.3-.4.1-1.3.7-.5.2-1.4,2-2.6,9.4.4,2.4.2,1.6.1,1.5-.1,1.6-.4.7-.7.7-1.8,1.2-1.9.9-1.1.2-1.5.7-.7.8-.9,1.2-.8,2.3v1.2l.2.9.6.6-.5.7-3.3,1.1-2,.7h-1.6l-.8-.3-.3-.3-.4-.2h-.9l-1.7.5h-.2l-.5-.4-.5-.8-.3-.4-.5-.2h-.3l-1,.6H192l-.6-.2-1-.4-.3.1-.2.4-.1,1.1.3,3.4-.1.7-.8,2.4-.2,1.3.1.7.3.4.3.2,1.9.2.3.1.4.5v.3l-.2.6-1.3,2.6-.3.9-.2.9.1.5.6,3.1-.3.6-.8.8-6.6,2.8-1.7.3-2.6-.4-.7-.9-.7-1.1-.2-.4-.5-1.4-.3-.7-.7-.8-1.1-.7-4.2-2H170l-1.4.1-.5-.1-1.1-.4-4.9-.1-1.1-.3h-1.3l-3.4,1-.5.3-.2.3-.1.7v1.3l-.3.5-1.8,2.3-1.6,1.1-.8.4h-.3l.2-.7.7-1.1v-.5l-.2-.2-1.5-.5-.6-.3-1.4-1.2-.4-.2-.7-.1-.3.1-5.5,2.6-3.6.8-.5.3-.6.4-.4.7-.2.6v.8l-.1,2.5v.6l-.2.7-.3.3-.4.2-.5.1-.4-.2-.3.2-1,1.3-.3.4.8.5.9.7.6.1.5-.6,1-.2,1.1.2.5.6.1.3.6,3.7,1,1.7-.1,1.9.5,1.3.8,1.5.1.3-.5.3-2.3-.9-.2,12.5.1.7,1.4,4.2,1,2.8,1.4,4.4.4.5.2.7.3.4h.2l.3-.2.9-1.6.5-.5.4.1.2.6v.7l-.3,1.3v1.1l.1,1.1.5,1.7.4.8.5.7.5.3.5.1.5-.1.4-.2.9-.1.7.4.3.5.2.6v.6l-.5,1-1.5,2-.3.7v.7l.3.6.9.6,1.7.7.3.5-.1.6-1.4,3-.3.8-.1.7v.7l.4,1.4v.5l-.2.3-.6.7-1,.5-.4.1-1.2.1-.5.2-.1.9.2,1.4,1.1,4.5.1,1-.3.8-.6.7-.4.2-.9.8-1.1,1.2-.9,1.2v.6l.4.7,2.2,2,1.5,2.7-1,1.7h-.2l-.6-.1-1.5-1.4-.6.3-.1.4.1.5.4.7,1.8,2,.5.7.5,1.2.2.4,1.1,1.6,1,1.9.2.8v.5l-.6.2-.6-.2-.3-.3-.8-1.1-.2-.2-.6-.2-1.3.2-1.1-.2-.9.1-2.5,2.5-1.1.4-1.4-.3-.3-.1-.9-.1-5.8.1-.5.2v.4l-2.5,2.7-.3.4.1.5.6.9.5.8.5,1.1.2,1.1-.1.6-.4.7-2.2,1.5-.7.2-.4-.1-.2-.3-.1-.9-.4-.3-.3.1-.2.3-.2.4-.4,2-.3.9-1.3,1.8-1.9,2.1-1,.7-.7.2-.8-.5h-.9l-1.5-.5-.4-.3-.2-.4-.1-.5.1-1.3.2-.9.3-.4.2-.2,1.1-.6.5-.5.1-.9-.4-2.6-.1-1.4.1-.6.2-.5.2-.5,1.7-2,.4-.2h.3l.6.8.5.5.6.4h.4l.3-.2.8-1.1.4-.6.5-1.3.1-.9v-.4l-.3-.8-5.4.6-1.4-.1-.5-.3-.5-.7-.4-1.4-.5-.8-.4-.2h-.5l-2.3.2-1.8-.3-2.1-1-3-2-.8-.7-.5-.8-.3-.5-1.3-3.3-.5-1.8v-.4l.6-1.2.1-.6-.2-.9-1.1-1.6-.3-.4v-1.1l-.3-.3H99l-7.6,2-.4.4v.5l.8,3.4v.3l1,3.9.3,1.2v1l-.2.7-.3.4-.4.2-1.3.5-1,.8-2.3.7-7.4-7.7-2.6-2.1-1.4-.4-.4-.1-.9.1-3.6,1.5-1.8-5.2-2.7-5.2L65.2,343l.2-4.5,1.8-3.2,3-2.1,3.5-.7,2.4-2.9,1.4-2.3.3-1.7-1.5-.6-2.2.5-2,.2-.9-1.8-.2-1.2-.6-1.3-2-3.8-.4-1.5-.3-1.4-.4-1.7-1-2.4-2.5-3.7-.9-2.1,1.7-5.9-2.2-5.7L50.8,279.9l-1.7-1.1-1.3-.3-3,.1-13.6,4.6L27,286.5l-5.2,2.7-4.7,1.6-4.4.1-2-2.9-.3-2.1-.8-1.4-7.1-6.4-1-.4-.5-.4,4.3-3.4,2-.9,1.1-1,.4-.6.1-1.5.1-.8.3-.9.8-1.5.5-.5.5-.1.4.1.6.1h.6l.9-.3.6-.2.4.1.4.3.6.8.9.7.7.3.2-.1.2-1.6.2-.7.5-1.6.1-.8-.2-.4-.3-.2-2.1-1.2-.7-.8-.4-.6-.1-1.2.2-1.5,1.3-3,.7-1.2.7-.7,1.8-.9,1.5-1,3-1.4.7-.9.7-.6.5.2.6.6.4.6.5.3.5.3.7.1.5-.4.4-.8,1.2-1.9.2-.4-.1-.4-1-1.2.1-1,.4-1.2.4-.5.4-.3,5.5.2,1.8-.4.8-.7.2-.5.1-1.1-.1-.4-.3-.9-1.3-4.3-.7-1.5-.2-.1-1-.6-1.1-1.1-.7-1.4-2-4.7-.6-.9-1.9-.9-.2-.4-.1-.6-.1-.7-.3-.3-.3-.2L23.8,219l-.5-.4-.3-.4.2-.8,1.4-1.1.5-1.7.4-1.8.5-1.4,1.6-1.7.4-.8-.1-.2-1.1-.5-.6-.6-.3-.6-.2-1.7.3-5.6.4-2.1.5-.2.7-.4.6-.7,1.1-1.6.5-.6.7-.5,1.2-.3,1-.1.5.1.4.3,1.8,2.4.7.5,1.1.1h.4l.8-.3,1.7-1.3.5-.5.4-.8,1.7-4.4,1.1-2.8-.4-.5-.1-.4-1-.5-.3-.6-.4-.9-.4-2.6-.5-1.5-1.5-3.3-.2-.7.2-1,.5-1,.4-1,.5-2.9,1-2.4.8-.8,1.1-.2.3-.3.3-.4.3-1.4.6-4.5-.1-.6-.3-.5-.5-.5-2.4-1.9-.3-.4V155l-.1-.5-.7-.4-.2-.5.1-.7.6-.7,5.2-4.5.8-2.2.3-.5,2.1-1.5.3-.3.6-1.1,4.7-4.2,1.4-1.7.7-.4,1.3-.1.4.2.3.4,1,2.2.6.5,1.8.3,1.5-.2,1.5-.1.5-.2.6-.3,2.2-1.8.3-.7v-.8l-.1-.9.4-.6,2.9-2.8,1.9-1.3h.6l1.2.3h.3l.3-.4.2-.7v-2.7l.1-1.3,1-1.9,1.3-3.1.7-.8.9-.2.5-.3.3-.5.2-.7.6-1.1.4-1,.4-1,1.2-1.4.7-1.3v-.6l-.2-1-.7-2.4-.1-1.1.1-1,.2-.7-.1-.5-.2-.8-.8-1.5-.4-.7-.4-.8L83,99l11.2-.1,3.4.9h.5l.3-.1,1.4-1.2,2.8-1.5.2-.3.1-.4v-.9l-.2-.4-.9-1.6-.2-.4.1-.5.2-.4,2.2-3,3.5-3.9.2-.9V83.2l-.1-1.1-.7-3.5-.1-.8-.6-2.9-.2-.9-.5-2.2-.3-.4-1-.5v-.5l.4-1.1V69l-.1-.5-.2-.2-.4-.2-.5.1-.5.2-2.4,1.8-2.3.6-2.2.2-.5.2-.5.5-.6,1.1-.3.3-.6.3h-.5l-1-.1-.5-.3-.4-.4-.2-.5-.2-1.2-.2-.5-.4-.4-.7-.4-.4-.5-.4-.4-.1-.5.3-1L90,64.8l.6-1.1,2.3-3L96.5,57l.3-.4.3-1.2.9-.8,1.2-.7.7-1.1v-.3l.6-.5,2.1-.5,2.5-1.2.8-.2,1.8.1,2.3-.3,2.6-.9,1.4-.2h.6l1.1.2.5.3,2.3.7.8-.1,2.8-2.1,1.1-.5,4.5-.2.4-.3.4-.5.5-1.5.3-.7v-.7l-.3-.5-.6-.4-2.3-.4-.4-.2-.1-.7.1-1.6-.3-2-.1-.8-.4-.9-1-1.3-.2-.7v-.4l.1-.8.4-.8.4-.4,5.6-2.9,4.5-1.2,1.7-.9.7.2.9.5,2.2,1.6,1.5.8.8-.1.4.2.4.4.7,1,.2,1.7-.1.6-.2,1.7.1.5.5.8,2.1,1.7,4,.8h.9l.5-.1,3.8-3.1.6-.2,1.2.3.5-.4.4-1.4.1-.6v-.9l.1-.9.5-1.2.9-1,2.1-1.3,1.2-.4.8-.6,1.4-1.2L167,25l.4-.4.3-.6.5-1.3.4-.8.5-.8,1.2-.9.5-.7.5-.8.5-1.3.3-1.1.1-.5.3-1,.4-1.3.4-1.1.1-.8-.3-.4-1.4-.9-.6-.6-.1-.3.5-.4.9-.5,7.8-2.6.7-.8L182.7,2l.9.9,2-1.9h1.7l.5.3.3.7V3.1l.1,1.1.1.4.3.4.5.3.9.3,1.5.1.7-.1.5-.3L193.8,4l.8-.5.4.1.3.3.4.8.5.6,1.4.6.9.2h.8l1.3-.3,1.2-.6h.5l.3.2.2,1,.3.7.3.5,2.2,1,.4.6.3.7.3,1.6.7,1.7,2.1,2.3-.9,2-.7.2-.3-.1-2.6-2.1-.5-.1-.5.3-.1.4v.5l.1.6,1.1,1.9-.1.3-.4.2h-.4l-.8-.2-.7-.4-.4-.1-.3.5-.1,1v1.9l-.1,1-.3.7-.3.3-.4.1-1,.1-.2.4.2,1.2,2.2,4.9.7,1.1.5.5.8.4.3.3.1.4-.2.5-.7.8-.1.4.1.5.5.7.2.7v1l-.3,1.4.5,4.4-.3.8-.4.5-3.1.4-.8.3h-.4l-.8-.3h-.4l-.3.2-.5,1-.3.4-.9.9-.1.6.2.8.7,1.4.1.8-.1.4-.4.2H196l-1-.3-1.7-.7-.3-.1.1.5.6,1,3,2.8,1.9.5,7.6,3.4.7.1.7-.1,1.5.8,3.1,4.1,1.2.2h.3l.9-.5,3.1-2.8.8-1,.4-.7V58.4l.3-.4.5-.4.4-.8.1-.5-.6-.6h-.5l-.5.3-1.2,1.1-.5.6-.4-.1-.9-.6L213,54.2l-.4-.6-.3-.8v-.7l.1-.2,4.6-2.7,1.4-1.1,2.6-.8.7-.7.3-.5-.3-.6-.3-.7v-.7h.5l.8.2,2,1.1.7.6.5.7.8,2.1.5.9.8.8h.5l.5-.2.8-1,.3-.5v-.5l-1.4-3-.1-.5.1-.7.3-.3.4-.1h1.4l.3-.1.7-.9.7-.4h.4l.3.3.1,1,.1,1.4.9,1,3.8,2.8Z"/></g></g></svg>