<svg xmlns="http://www.w3.org/2000/svg" viewBox="0 0 537.7 468.6"><defs><style>.cls-1{fill:#7c7c7c;stroke:#fff;stroke-linecap:round;stroke-linejoin:round;stroke-width:2px;}</style></defs><title>NiederSachsen</title><g id="Ebene_2" data-name="Ebene 2"><g id="Ebene_1-2" data-name="Ebene 1"><path id="DEU1576" class="cls-1" d="M10,58.8l.8,1.1.8,1.7-1-.5L9.2,59.4,8.3,59l-1.1.2-1.6.9-.7.2-2-1L1.5,57.1,1,55l1.3-1,8.3-2.5,4.1-.4L16.1,54l-2.4.4L9.9,56l-2,.5v1.1l1.2.5.9.7ZM29.6,47.1l-3.1,3.5-1.7-.7-1.3-1.3-.1-1.9.2-.6.5-.2.6-.5h2l2.4,1ZM75.8,32.2l-.2.2h-.3l-5,2L57,36.2,52.6,35l5-3,5.8-1,12.4.3Zm8.3-2,1.4,1.1-.3.7-.4.3-.9.3-4.3-1.4-1.6.1L79.8,30l2.2-.3,2.1.5Zm81.5,1.5-1.7,1.7-.5.4-1-.2-.6-.5h-.6l-1.2.7V32.6l1.4-2.4,2.1-1,2.5.4,2.3,1.7h-1.6l-1.1.4Zm-59.2-4.6-.8.3-7.9-.2-3.7.9-.3,3.2-3.2.2-.9-.9-.4-2.5.5-2.1,1.4-.9,3.3-.1,9.7-.1,2.2,1.4.1.8ZM125,22.4l-2.4,1.5-3.1,1.3-3.1.2-2.7-1.7-1,1.4-.9.7h-.9L110,25l2.8-3.5,4.6-1,9.2.6v1.3Zm14.2-3,2.9,1.8-1-.2-1.2.1-4.6-1-1.9.1-.2,2.2-2.1-1.5.5-1.2,1.9-.7,2.3-.3,1.8.2,1.6.5Zm199.7,45,.1.7.4,6.6,1,1,.2.4.1.7.2.4.3.3.7.5.3.4.2.6.5,1.7.5,1.1L344,80l.7,1,.8,1,3.6,3.4.4.2.4-.3,1.4-2,.6-.5.8-.3.6.1.4.3.6,1,.3,1.9.1,1.7v.6l.4.5h.7l2.1-1.2.7-.1.6.1,2,1.4.7.1,1.1-.2,2.8-1.2,1.8-1.1.3-.3.1-.4-.2-1.3.3-.4.7-.4,4.1-1.4.8-.1,1.7,2.1,1.3,1,2.2.7,1.3,1.4,1.1,1.7,1.8,1.2,1.8.4,6-.4.2-.5,2.5-3.2,1-.7,1.1-.3h4.6l2.5.1,3.9,1.5,15.4,9.4,4.5,1.5,3.4-1.4,8.1-.4,3.8,1,2.3,3,.3,2.6.1,2.9.5,2.4,1.8,1,2.1.5,1.2,1.3,2.3,3.2L456,117l9.9,5.7L477.8,134l3.1,2,1,1.2,1.3.8,1.1-.8,1-1.3,1.7-1.1.9-1,1.2-.9,1.3-.3,1,.6.6,1,.6,1.2.9,1.2,1.1,2,.8.1,1.4-1.5,1.1-.8.8.8.8,1.2,1.8,1.1.7,1,1.3,2.4,1.8,3.4,4,4.7,1.8,1.2,2.3.4,2.1-.6,3.5-2.5,2.3-.5,2.5.8,3.3,3.4,2,.7,2.5.4,5.3,2.1-2.1,6-1.1.7-1.4.1-.9-.4-.6-.1-1.1.2-.6.6-.3.5-.5,1.6-.1.5-.5,3.6v1.7l.1,1,.3.9.2,1-.4.4-2.1.1-1,.2-6.3,6.1-.4.2-3.8,1-6.6,2.9-2.2.1-.9-.4-.6.2-.7.4-.9.8-.7.2H501l-.5-.3-.5-.6-.3-.9-.4-.3-1.3-.5-.4-.3-.5-.7-.4-.3-5.3-.9-6.3.4-.9-.1-1.9-1.1L479,180l-1.8-.1-2.2.2-1.3.6-.4.5-.3.8-.2,1.1-.1,1.4-.2.6-.2.4-2.1,1.6-1,1.4-2.1,1.1-3,1-1.7.9-1.4.3-4.7-.3-5.1.4-3.7,1.5-.3.5.2,1v.6l-.3.9-.1.6v.5l.3,1.5v1l-.3,1.6v1.1l.3.9.4.8,1.2,2.8.5.6,1.4,1.4.2.4.1,1.4.2,1.1.5,2.1.5.8.6.4H454l.8.4.9.6,1.1,2.3,4.1,8.3,3.8,5.7.9,1,.6.2.4-.2,1.3-1.2.3-.2.6-.1h.7l1,.6.4.5.1.6-.4.8-.5.7-1.8,2-.5.8-.2,1v3.7l.3,1.6.2.9.3.6.8,1,.6.6,3,4.9.6,1.2.2.8-.3.2h-.5l-2-.5h-.5l-.9.2-.8.4-.6.7-.3.8v.7l-.4.8-.2.5-.1.7-.2,1.9,7.8,10.5.5.5,1,.6,1.4.4,3.2,2.7.4.6.3.8-.3,1.3-.1,1.1-.3.5-.3.3-1.8.5-3.1.4-1.1.5-.8.4-.2.3.1,1.6.3.8.3.2.9.3.7.5.4.5.2,1.2.5.6.3.7v.5l-.2.4-1.2,1-.5.7-.2.4.1.4,1.3,2.1.7.8.4.3.5,1,.3.3.4.1.8-.2.6.2.1.5v1.4l.2,1.2.3.1.4-.6.3-.7.6-.1.5.7.1.6.1.7v1.7l-.2.9-.5.8-.7.4-1.6.3-2.2,1-.9.9-.9,2.2-.2.7v.5l.7,1.4.5.6.8.4.5.1h.4l.5.2.5.6.3,1.9v.9l-.1.7-.9,1.6-.5.8-.6.6L475,322l-2.3,1.3-3.8,1.2-.7.4-.3.5-.1.5.1.6.3.2,1.7,1.3.2.3.2,1.1-.1,1.5-.2.7-.3.6-.3.3-.8.3-1.1.1-5.3-.2-2.2.3-2.8,1.2H442.7l-6.2,1-.9.3-.1.4.1,1.4-.1.5-.9.9-.9,1.2-1.4,1.3-.8.3-.6.1-3.2-.4-.6.3-.4.4v.8l.2.6,1.5,2,.3.6.1,1.4,2.8,1.4.3.4.7,1,.5.3.6.2.8-.3.3.1.1.3-.2.4-.2.3-1.7.7-.3.2-.6.8-.4,1.6-.2,1.7.2.7,1.9,1.2.3.4.4.8.3,2.7v.9l-.1.5-.7.9-.3.9-.3.4-.3.2-.8.4-.4.3-.4.5-.4.8-.3.4-.4.4-1.5.6-.5.6-.2.5V373l-.3,4.5v.8l.2.7.3,2.1.3,1.2.6.5.8.9.5.7.7.5,1.1.8.3.5.3.7.4,1.8.2.5.9,1.2.6,1.8.3.3,1.2,1.1.4.4.3.7.4,1.6.1.9v4.1l3.1,5.7-5.3,3-1.9,2.3-.2,1,.6,1.1.7,1.1,1,1.2.2.2.2.4.1.7-.2,1.5-.3.6-.6.2-.7-.4-1.5-1.7h-.7l-.9.1-5.2,2.7-.5.1-3.4.2-1.3-.1-3.9-3.3-5.2-2.8-1-.2-.8.4-1.5.3h-1.7l-.7.2-.4.2-.1.7.4.7.2.5v.5l-.2,1-.2,1-1.2,3.2-.8,1.1-1.7,1.3-.4.5-.1.5-.5.6-1,.4-1.8,1.2-.6.6-.3.5-.1.7-.3,1.2-.4.4-.5.2-.4.1-4.7,3-.8.4h-1l-.5-.2-.5-.5-.1-.7-.4-.3-.5-.1-1.1.1-.6.3-.4.3-.5.7-.1.4v.6l.2.6-.2.8-.8,1.6-.5.5-.5.3-1.5.4-.3.3v.6l.3.9-5.4-.2-1.7.4-.6,1-.6.8-.5.1-.3-.2-2.2-1.9h-.5l-.5.8-.5.6-1.6.8-.6.5-1.3,1.5-5.5,4.6-3.8-2.8-.9-1-.1-1.4-.1-1-.3-.3h-.4l-.7.4-.7.9-.3.1h-1.4l-.4.1-.3.3-.1.7.1.5,1.4,3v.5l-.3.5-.8,1-.5.2H349l-.8-.8-.5-.9-.8-2.1-.5-.7-.7-.6-2-1.1-.8-.2h-.5v.7l.3.7.3.6-.3.5-.7.7-2.6.8-1.4,1.1-4.6,2.7-.1.2v.7l.3.8.4.6,2.6,2.8.9.6.4.1.5-.6,1.2-1.1.5-.3h.5l.6.6-.1.5-.4.8-.5.4-.3.4v1.3l-.4.7-.8,1-3.1,2.8-.9.5h-.3l-1.2-.2-3.1-4.1-1.5-.8-.7.1-.7-.1-7.6-3.4-1.9-.5-3-2.8-.6-1-.1-.5.3.1,1.7.7,1,.3h.5l.4-.2.1-.4-.1-.8-.7-1.4-.2-.8.1-.6.9-.9.3-.4.5-1,.3-.2h.4l.8.3h.4l.8-.3,3.1-.4.4-.5.3-.8-.5-4.4.3-1.4v-1l-.2-.7-.5-.7-.1-.5.1-.4.7-.8.2-.5-.1-.4-.3-.3-.8-.4-.5-.5-.7-1.1-2.2-4.9-.2-1.2.2-.4,1-.1.4-.1.3-.3.3-.7.1-1v-1.9l.1-1,.3-.5.4.1.7.4.8.2h.4l.4-.2.1-.3-1.1-1.9-.1-.6V419l.1-.4.5-.3.5.1,2.6,2.1.3.1.7-.2.9-2-2.1-2.3-.7-1.7-.3-1.6-.3-.7-.4-.6-2.2-1-.3-.5-.3-.7-.2-1-.3-.2h-.5l-1.2.6-1.3.3h-.8l-.9-.2-1.4-.6-.5-.6-.4-.8-.3-.3-.4-.1-.8.5-1.1,1.3-.5.3-.7.1-1.5-.1-.9-.3-.5-.3-.3-.4-.1-.4-.1-1.1v-1.1l-.3-.7-.5-.3h-1.7l-2,1.9-.9-.9-5.1,1.6-1.6-.1-.3-.3-.3-.9-.1-.6v-1l.1-.9.2-.6.2-.4.3-.3.7-.5.3-.4.1-.6-.2-1.3-.1-.8.1-.6.6-.8v-.5l-.1-.9-.3-2.1v-2.1l.1-.8.2-.3.7-.8.4-.9.3-1.2.4-.5,1.5-.8.6-.6.6-.8.3-.5,1-2.6.7-2.2.1-1.4-.1-1.9.1-.8.1-.6.8-.8-.1-.5-.3-.3-.9-.3h-.6l-.4-.6v-.4l.1-.4,1.1-1.3.5-1,.3-.6.3-1.1-.4-.3-.3-.2-.6.2-.7.4-1.1.4-2.5.4-4.8-.2-.6.1-2,.9-1.1.2-1.1-.2,1.6-4.6.2-2-.2-1.3-.2-.9-.4-.9-.6-.9-2.5-1.3-1.5-.1-2.8.5h-.6l-.2-.2.2-.3.8-.8.5-.5.6-1.1,1.2-4.8.1-1-.1-.4-4.2-1.9h-1l-.5.1-.6.5-.4.7-.1.5v.3l-.5.2-1-.2-2.7-1.4-1-.7-.5-.5.4-.4.2-.5v-.8l.2-.5.7-.4.6-.5.3-.4.4-.9.2-1-.1-.5-1.3-3.1-.9-2.9-.1-.6.1-.6,1.2-2.1.1-.5v-.7l-.1-1.1-1.3-1.7-3-1.3-.9-1-.1-.9.6-1.5.1-.8-.4-.6-.8-.5-7.8-1.1-2.2.3-1.4-.1-1.6.2-1.3.4-.6.1-.2-.2.1-.5.4-1,.5-.8.2-.4v-1.2l-.2-.9-.2-.6-1-2.4-.7-1.8,3.4-1,2.4.2.5-.2.2-.4-.2-1.5-.4-1-.4-1v-.5l.3-.9.8-.7,2.3-1.7.3-.4-.7-.4-2.4-.5L257,298l-2-.5-.4-.3-.3-.3-.4-.8v-1l.2-.6.3-1,.2-1.6.4-4.9.2-1.2.7-1.8.3-.7.4-.5.5-.2.6-.1,2.5.3.9-.1.9-.8.6-.3,1.2-.5.5-.6,1.9-4.2,3.5-5.8-1.9-6-.2-1.7.3-.3,1-.8.6-.5.4-.7.5-1.3v-.6l-.3-.3-.9-.2-.4-.1-.4-.3-.6-.5-1.5-2.3-.6-.3-.6-.2-.5.2-6,3.2-2.9,3-.6.8L254,264l-1.6,5.1-.3.5-.5.8-7.3,1.6-.7.4-3.2,1.2-3.5.4-11.2-1.2-1.2-.3-.4-.7-.2-1.1-.1-.9.1-1,.3-1.9.1-.6-.1-.5-.4-.8-.2-.6v-1.6l.3-1.7v-.7l-.1-1.1-.3-1.6-3-5.5-.9-.7-.9-.9-1.8-.8h-1.2l-5.4,2.7-1.7.3-5.4-.1-2.2.3-.5.5-1.2,1-1,.6-.7.6-.2.3-.2.6-.9,4.4-.2.6-.4.6-.8.7-1.9.9-6.1.8-1-.3-.8-.4-.4-.1h-2.5l-2.5-.9,2.2,7.3.6.9.8,1.2,7,3.3,3.2,2.3.8,1,.6,1.3,1,2.8.7,3,.4,3.1.1,3.1-.2,6.5.2,6.4.3,1.7.2.1,2.3,1.6,1.2,1,.1.4-.2.7-.5,1.2-.6,1.1-.6.9-.6.6-1,.9-4.4,2.8-.5.5-.3.8-.9,2.6-.3.6-.2.2-.6.4-.7.2-13.8-4-3.5,3.1-1.9,2.3-.7,1.2-1.3,1.2-2,1.2-7.6,2.9-4-1.5-3.9.7-1.7.9-4.7,4.5-.6.4h-.5l-.5-.5-1.8-1.1-3.1-1-.5-.3-.3-.2-.9-2.9-.4-1.1-1-2,.2-1,1.3-1.4,1.9-1.5,2.7-1.3,2.1-.4,1.4-.1,1.2-.3.4-.8.3-1v-.9l.7-2.2,1.1-2.3.4-1.1v-.7l-.4-.3-.5-.3-2-.7-1.3-.1-2,.4h-1.4l-.5-.3-.4-.5-.2-1.1-.3-.8-1.1-.2-1-.1-.8-.3-.5-.4-.3-.8v-.5l.4-.6,1.4-1.6.7-1.1.2-.7v-.5l-.1-.5-.6-1.2-.3-.8v-.6l.4-.6,2-2.1.7-1,.2-.5v-.5l-.6-1.1-.7-1-.3-.9-.3-1.1.1-.5.2-.4.5-.2,3.3-.5.4-.2.4-.3-.1-.5-.3-.5-1-1.6-2.1-3.8-1.4-2.1-1-.9-1-1.2-.5-1-.7-.3h-.5l-7.2,2.8-.7-.1-.7-.3-1.2-1.5-.3-.4-7.4-4.6-2.7-1-.4-.5-.3-.6-.9-6.1-.3-1-.4-.9-.8-.7-7.8-2.4H104l-.5.2-.2.3-.6.8-1.3,5.7.2.6.3,1,.8.4.8,1,.2.4-.1.3-.7.3-.5.7-.4.9-.7,2.6-.5,1.3-.3.2-.3.3-.5.9-.5.6-.3.1-2.1-.4h-.7l-1.5.3-.6.3-5,4.3-5.6,5.7-.8.6-1.2.6-2.8.6-.4.3-.6.3L76,291.2l-5.2,3.6-4.5,1-15,.7-.6.5-.8.8L48.4,299l-4.5,1.9-2.9-.2-.6-1.1-1-3.8.1-3.3.7-2.7,2.2-5.1.9-6.5-1.5-4.6-6.6-10.8-.7.3-.7,1.2-1,1-2.7.8-2.9.2-3-.5-5.7-2.2-8.6-1.2L7.1,261l-2.2-2.5-.7-2.7-.1-3.1-.4-3.2-1.3-2.8,1.8-.2,6-3.1-3.6-3-.7-1.2-.1-1.4.5-1.5.2-1.6-.9-1.9L9.5,230l3.6-1.1,10.3-.2,5.8,1.7,5.4-.8,1.6.7,3.9,1.3,2-3.9.8-6.3,1-19.4.9-6.1,2-5.4,8.9-14.2,2.4-6,1-5.8.1-6.5-1-12.9-.4-1.6-.5-1-.4-1.1-.1-2.2.3-1.5,1.5-4,.8-3.1.3-2.8-.1-2.9-.3-5.2,1-.6,1.3-1.3.9-1.4,1-1.9.4-2.2-.8-2,2.7-4.2,1.5-.7,2.5-.1,2.4.6,3.7,2.4,2.1.9-2.6-3.9-4.3-1.6-24.8-.9-4-2-1.6-5.1-.1-13.5.5-3.1,2.1-5.5.5-2.8.9-1.6h2.1l4.4,1,.6-1.5,1-.6.8-1.8L53.3,64l-.9-1.3-3.2-1.6-1.4-1.5-.3-2.4,1.6-2,3.5-2.4,3.9-4.5,2.2-1.5,4-4.2,8.6-3.4L88,37.3l1.2.9,1.2,1.6,2.5.6L109,37l32.6-4.6,8.8,2.6v1.3l-.8,5.2,3.1,6.7,4.5,5.8,3.6,2.5v1.1l-.9,2.4,1.7.8,2.4.7,1.2,1.9-.3,3.3-1.1,1.7-2.3,1.8-2,1-4.3.4-1.9,1.2,2,6.1,1,2.3,1.5,1.6,1.4-.7,1.2-.5h1.8l1.3.7,2.1,2.5.8.5.9.7.8,1.8,1.2,1.7,1.5.8,1.9-.1,1.3-.3,1.2-.7,1.3-1.3,2.3-3.9,2.4-6.3.6-6.2-3.1-3.7-4.3,1.1-2.3-.4.2-2.6.9-3.1.8-6.2.9-2.6,1.5-1.5,1.8-.8,4.6-.2,2.1,1,1.6,2.2,1.3,2.5,1.3,1.8,4.4,2.3,9.3,1.8,4.2,2.1v1.3l-2.6,2.3L202,71.7l-1.7,3.9-.7,5.4.1,10.2.7,4.5,1.4,3.4.3-4.5L201,83.2l.1-5.4,1.7-4,2.4-1.8,2.3-2.2.1-.3,1.7,3.3.6.5.8-.2h.3l.7,1.5.5.4.3-.1,2.3-2.2,1.7-2.6.2-.6.1-1,.1-1.2-.1-1.3-.7-3.8-.4-1.4-.9-1.8-.3-.9-.1-1,.3-1.2.3-.5.7-.9-.1-.4-.6-.2-4.5.2-2.4-.4-5.3-2-.5-1.5-.8-3.5-1.6-4.2-.3-3,.2-3.1.7-2.7,4.1-10.3,2.9-11.1,1.8-4.9L210.9,5,213,3l2.4-1.5,2.5-.5,2.2.1,1.3.6,2.7,3.1L228,8l4.1,2.2,8.5,2.1,4.7-.1,7.9-2,4.3.4,2.1-2.5L268.2,6l8.6.1,1.9-1.3,1.5,1.1,1.8.3,3.7-.2.9.7L289,9.8l10.6,18.8,4.4,5.2,3,2.5,1.5,2,1.5,5.5,7.5,11.1,1.7,1.5,2,.9,2.6.3,1.3.7,6.5,4.5,7.3,1.6Zm-131,61.2-3.3-2.2-1.2-.3-2.5.4.6,1.3.3,1.1,1,2,4.5,1.9,2.5,1.8,1.3.1,2.3-.2.7.6,1.6,3.1.2,3.3v.5l.2.9.3.6,1.7,2.7,4.2,5,.8.4.2.5.1.6v5.2l.2.3,1.6.3,4.3-.8,1.1-.4h.3l.6.2,5.2,3.3,1.1.3,1,.1,1.5-.5.6-.3.3-.4-.1-1.1.1-.3,5.3,4.1.9-.5,3.8-2.7,1.6-1.9.2-.6.1-1,.1-2.5.3-1.1.2-.8.8-1,.2-.4-.2-.6-.2-.6-2.7-2.8-.4-1.1.3-.8,1.2-1.1.4-.4v-.5l-.3-.4-2.5-3-1.1-1.1-.4-.2h-.3l-.5.4-.5.8L247,137l-.3,1.1-.3.6-.2.2-.9.3-1-.2-3.7-1.9-2.2-1.6-1.6-1.6-.2-.2-1.3-.3-3.1.1-.5-.2-2.4-1.5-.6-.5-.2-.5V130l-.2-.4-.2-.2-1.4-.2-2.4.2-.5.1-.3.3-.3.1-1.1.1-1.5-.4-6.4-2.6-3-1.9h-.6l-2,.6Z"/></g></g></svg>