<svg xmlns="http://www.w3.org/2000/svg" viewBox="0 0 394.8 386.5"><defs><style>.cls-1{fill:#7c7c7c;stroke:#fff;stroke-linecap:round;stroke-linejoin:round;stroke-width:2px;}</style></defs><title>NordRhein-Westfalen</title><g id="Ebene_2" data-name="Ebene 2"><g id="Ebene_1-2" data-name="Ebene 1"><path id="DEU1572" class="cls-1" d="M391.5,156.1l-1.8,3.1-.7.8-7.8,2.6-.9.5-.5.4.1.3.6.6,1.4.9.3.4-.1.8-.4,1.1-.4,1.3-.3,1-.1.5-.3,1.1-.5,1.3-.5.8-.5.7-1.2.9-.5.8-.4.8-.5,1.3-.3.6-.4.4-1.4.9-1.4,1.2-.8.6-1.2.4-2.1,1.3-.9,1-.5,1.2-.1.9v.9l-.1.6-.4,1.4-.5.4-1.2-.3-.6.2-3.8,3.1-.5.1h-.9l-4-.8-2.1-1.7-.5-.8-.1-.5.2-1.7.1-.6-.2-1.7-.7-1-.4-.4-.4-.2-.8.1-1.5-.8-2.2-1.6-.9-.5-.7-.2-1.7.9-4.5,1.2-5.6,2.9-.4.4-.4.8-.1.8v.4l.2.7,1,1.3.4.9.1.8.3,2-.1,1.6.1.7.4.2,2.3.4.6.4.3.5v.7l-.3.7-.5,1.5-.4.5-.4.3-4.5.2-1.1.5-2.8,2.1-.8.1-2.3-.7-.5-.3-1.1-.2h-.6l-1.4.2-2.6.9-2.3.3-1.8-.1-.8.2-2.5,1.2-2.1.5-.6.5v.3L308,208l-1.2.7-.9.8-.3,1.2-.3.4-3.6,3.7-2.3,3-.6,1.1-1.1,2.4-.3,1,.1.5.4.4.4.5.7.4.4.4.2.5.2,1.2.2.5.4.4.5.3,1,.1h.5l.6-.3.3-.3.6-1.1.5-.5.5-.2,2.2-.2,2.3-.6,2.4-1.8.5-.2.5-.1.4.2.2.2.1.5v.3l-.4,1.1v.5l1,.5.3.4.5,2.2.2.9.6,2.9.1.8.7,3.5.1,1.1v1.1l-.2.9-3.5,3.9-2.2,3-.2.4-.1.5.2.4.9,1.6.2.4v.9l-.1.4-.2.3-2.8,1.5-1.4,1.2-.3.1h-.5L303,253l-11.2.1-.4,1.4.4.8.4.7.8,1.5.2.8.1.5-.2.7-.1,1,.1,1.1.7,2.4.2,1v.6l-.7,1.3-1.2,1.4-.4,1-.4,1-.6,1.1-.2.7-.3.5-.5.3-.9.2-.7.8-1.3,3.1-1,1.9-.1,1.3v2.7l-.2.7-.3.4h-.3l-1.2-.3h-.6l-1.9,1.3-2.9,2.8-.4.6.1.9v.8l-.3.7-2.2,1.8-.6.3-.5.2-1.5.1-1.5.2-1.8-.3-.6-.5-1-2.2-.3-.4-.4-.2-1.3.1-.7.4-1.4,1.7-4.7,4.2-.6,1.1-.3.3-2.1,1.5-.3.5-.8,2.2-5.2,4.5-.6.7-.1.7.2.5.7.4.1.5v.7l.3.4,2.4,1.9.5.5.3.5.1.6-.6,4.5-.3,1.4-.3.4-.3.3-1.1.2-.8.8-1,2.4-3.1-1.9-1.2-.3h-.6l-2.7,1.3-.6.1-.3-.4-.2-1.3-.3-.9-.2-.6-1.8-3.2-4.6-6-1.1-2.2-.1-.7.1-1.3.3-1.6v-1.5l-.2-1.3-.6-2.8-.4-1.1-.3-.6-.3-.1-.6.1-1.4.7-.7.1-.9-.5-1.2-1-3.3-3.7-.8-.8-2.9-1-1-.6-.4-.4-.2-.6.3-1.5.2-.7.3-.7.5-1.6.4-2.5-6.4-1.7-1.4.4-3.4,3.3-.2.8-.1,1.1.4,4.3.1.8.4,1,.4.3.2.6.2.8.1,1.9-.1.8-.3.5H209l-2.5-1-.7.4-1.7,2.1-.6.5-4.1,2.5,2,2.1.5,1,.1.8v1l-.3.8-.3.2-.5.2h-.3l-.4-.4-.3-.5-.6.5-1,1.8-.3.4-.4.2-3.4,1.3-1.1.6-.4.5-.4.6-.4,1.3-.4.5-.4.3-1.9-.4-1.1.1-.9.4-3.4,2.1-9.1,2.5-4.1-.3-2.6.7-.7.9v.2l.4.6v.4l-.1,1.3v.6l.1,1.3-.1.8-.7,1.1-.2.8-.2.7.1,1-.1.5-.2.3-2.9,2.2-.5.2-5,1.5-1.3.2-6.1-.4-.4-.5-.1-.6-.3-.7-.3-.4-.8-.4-.7-.2h-.3l-.3.2-.3.9-.9,2.1-.8.3-2.6,2.8-1.2.3-2.3-.9-.5.1-.3.2-.2.7-.3.7-.6.9-.7.4-.5.1h-.4l-1.7-1-1.4-.1-1.1.4-5.7,4.1-3,1.2-2,.2-.9.3-.6.3-.3.5-.2.5-.7,1.3-1.6,2-2.6.8-.5.6.1.8.2.7.1,1.2.1,1.6-.2,3.4-.8,1.5-.8,1-1,.2h-.5l-.7-.1-.7-.3-.7-.4-.7-.6-.6-1.1-.7-1.3-.1-.5-.7-.1-4.1,1.6-1.8,1.1v.3l.1.8.1.7-.1,1-.6,1.5-.3.9v.6l.1.3.3.3,1.5.6.6.6.3.8-.1,2,.2,1.6.2,1.3.3.7.2.6,1,1.5.3.6.2.6.2,1-.2.7-.2.5-.3.2-2.7.5-5.7,1.9-1.8-.4L92,380.3l-.7-.7-1.2-.8-.9.1-.6.5-.8.7-1.6.8H85.1l-.6-.1-.2-.4.2-.4.6-1.2-.3-.6-.7-.6-1.9-1-.9-.3-.5-.1-.8.5-.6.2-4.4.7-.5.2-.2.2-4.9,3.6-1.8.7-.7.2-.4-.3-.4-1.9-.3-.5-.4-.5-1.8-.9-.6-.6-.3-.4-.1-.4-.5-.9-.8-.7-.5-.2-.5.1-.5.5-.2.4.1.9,3.5,5.7.3.6-.1.5-.6.5-2.4,1.1H57.7l-.1-1.1-3.8-6.6-.1-2,.7-2.3.8-4,.1-2.8-.4-.6-.8-.2-1-1.5-.5-1.8-.4-1.5.3-1.4,1.2-1.2-2-.1L47,357.3l-1.6-.8-.5-.3-.5.3-3.7,1.2-1.1-.1-.9-.7-.9-1.9-.9-.8.9-1.5-1.3-.1-.9-.4-.1-.8.9-1.3-1.9-2.3,2-3.1,3.5-2.9,2.4-1.5v-.6l1.2-1.5.8-1.5-.2-1-7.6-.2-2.2-1.2-1.3-2.5,1.5-.9L28,320.7l-2.1-2.1-1.8-.1-4.3,1.2-1.5-.2-.4-1.4.4-1.9-.1-1.6-1.8-1-.1-.3v-.6l.2-.3.2-2.3-.7-1-1.1-.8-.8-1.4-.4-2.2,1.6.4,1.6-1.5.5-2-.2-1.6-.1-1.5,1-1.7,1.5-.9,2.4.2,1.2-1.4.7-1.8v-1.4L23,288l.2-1.2.6-.9.2-.7L20.4,284l-2.5-1.7-.9-.9-.2-1.3-.2-2.5.4-1.5.7-1.4-.2-.9-3.9.4-2.9-.9-1.5-.2-1.5.4-2.8,1.4-1.5.3-.1-4.4-1.7-4.9L1,261.8l3-1.6,1.6.9,1.2,1.6,1.5,1.4,2-.2,1.3-1.5,2.1-4.4,1.5-1.7,10.1-7.9,6.2-3.4,1.6-2.2-2.3-2.1,2.5-2.1.9-.5-2.5-.8L26.2,241l-2.5-1.4-.8-3.2.3-3.9.9-3.5,1.2-1.9,2.3-2.8L33.1,214l1.2-1.1,2.7-2,1.1-1.5.6-2.2.3-3.8.7-1.5-1.7-2,.2-3.2L39,193l.4-3.5-.5-3.2-.8-5.7-4.4-5.1-7.2-10-.5-2.2.6-2.5,1.3-3.9-7.4-3.2L18,150.5l1.4-5-1-1.1-2.5-1.9-1.2-.6-3.2.1-1.1-.4.1-1.9,2.5-2.4.1-3.6-1.4-3.4-2.5-1.9.4-1.6,1.8-1.3,4.4-.8,2.2-.9,2.2-1.7,1.6-.8,4.4-1.2,3.5,1,4.3,1.1-1.4-2.4-4.1-4.2-1.3-1.1,3.7-2,3.5,1.7,3.5,2.8,3.7,1.5,3.4-.7.9.1.7.8,1.2,2.1.5.6,4.2.7,1.8,1,.3,2.8,4.1-1.2.4-1.7-.9-4,7,2h2.2l1.8-.8,5.4-4.1,10.8-3.7,9.7-.3,2.9-1.6,2.5-3.1,2.5-4.5.9-1,.8-.1.6-.6.1-2.1-.3-1.2-.5-.9-2.9-3-7.1-4-2.3-.7-1.8-1.2-.2-2.7.8-1.8.9-.5,1.2-.1,1.3-.6.9-1.2.8-2.2.6-1,1.9-1.9,1.7-1,7.1-.8,1.3-1.3,2.4-4.9,2.2-2.2,4.6-2.1,2.2-1.9,2.6-4.2,1.1-1.4,4.9-2.9.3-.9-.3-.6,2.9.2,4.5-1.9,1.5-1.2.8-.8.6-.5,15-.7,4.5-1,5.2-3.6,1.6-1.5.6-.3.4-.3,2.8-.6,1.2-.6.8-.6,5.6-5.7,5-4.3.6-.3,1.5-.3h.7l2.1.4.3-.1.5-.6.5-.9.3-.3.3-.2.5-1.3.7-2.6.4-.9.5-.7.7-.3.1-.3-.2-.4-.8-1-.8-.4-.3-1-.2-.6,1.3-5.7.6-.8.2-.3.5-.2h.4l7.8,2.4.8.7.4.9.3,1,.9,6.1.3.6.4.5,2.7,1,7.4,4.6.3.4,1.2,1.5.7.3.7.1,7.2-2.8h.5l.7.3.5,1,1,1.2,1,.9,1.4,2.1,2.1,3.8,1,1.6.3.5.1.5-.4.3-.4.2-3.3.5-.5.2-.2.4-.1.5.3,1.1.3.9.7,1,.6,1.1v.5l-.2.5-.7,1-2,2.1-.4.6v.6l.3.8.6,1.2.1.5v.5l-.2.7-.7,1.1-1.4,1.6-.4.6v.5l.3.8.5.4.8.3,1,.1,1.1.2.3.8.2,1.1.4.5.5.3h1.4l2-.4,1.3.1,2,.7.5.3.4.3v.7l-.4,1.1-1.1,2.3-.7,2.2v.9l-.3,1-.4.8-1.2.3-1.4.1-2.1.4-2.7,1.3L224.4,76l-1.3,1.4-.2,1,1,2,.4,1.1.9,2.9.3.2.5.3,3.1,1,1.8,1.1.5.5h.5l.6-.4,4.7-4.5,1.7-.9,3.9-.7,4,1.5,7.6-2.9,2-1.2,1.3-1.2.7-1.2,1.9-2.3,3.5-3.1,13.8,4,.7-.2.6-.4.2-.2.3-.6.9-2.6.3-.8.5-.5,4.4-2.8,1-.9.6-.6.6-.9.6-1.1.5-1.2.2-.7-.1-.4-1.2-1-2.3-1.6-.2-.1-.3-1.7-.2-6.4.2-6.5-.1-3.1-.4-3.1-.7-3-1-2.8-.6-1.3-.8-1-3.2-2.3-7-3.3-.8-1.2-.6-.9-2.2-7.3,2.5.9h2.5l.4.1.8.4,1,.3,6.1-.8,1.9-.9.8-.7.4-.6.2-.6.9-4.4.2-.6.2-.3.7-.6,1-.6,1.2-1,.5-.5,2.2-.3,5.4.1,1.7-.3L303.5,1h1.2l1.8.8.9.9.9.7,3,5.5.3,1.6.1,1.1v.7l-.3,1.7v1.6l.2.6.4.8.1.5-.1.6-.3,1.9-.1,1,.1.9.2,1.1.4.7,1.2.3,11.2,1.2,3.5-.4,3.2-1.2.7-.4,7.3-1.6.5-.8.3-.5,1.6-5.1,1.1-2.4.6-.8,2.9-3,6-3.2.5-.2.6.2.6.3,1.5,2.3.6.5.4.3.4.1.9.2.3.3v.6l-.5,1.3-.4.7-.6.5-1,.8-.3.3.2,1.7,1.9,6L354,27.5l-1.9,4.2-.5.6-1.2.5-.6.3-.9.8-.9.1-2.5-.3-.6.1-.5.2-.4.5-.3.7L343,37l-.2,1.2-.4,4.9-.2,1.6-.3,1-.2.6v1l.4.8.3.3.4.3,2,.5,3.6,1.7,2.4.5.7.4-.3.4-2.3,1.7-.8.7-.3.9V56l.4,1,.4,1,.2,1.5-.2.4-.5.2-2.4-.2-3.4,1,.7,1.8,1,2.4.2.6.2.9v1.2l-.2.4-.5.8-.4,1-.1.5.2.2.6-.1,1.3-.4,1.6-.2,1.4.1,2.2-.3,7.8,1.1.8.5.4.6-.1.8-.6,1.5.1.9.9,1,3,1.3,1.3,1.7.1,1.1V81l-.1.5-1.2,2.1-.1.6.1.6.9,2.9,1.3,3.1.1.5-.2,1-.4.9-.3.4-.6.5-.7.4-.2.5v.8l-.2.5-.4.4.5.5,1,.7,2.7,1.4,1,.2.5-.2V99l.1-.5.4-.7.6-.5.5-.1h1l4.2,1.9.1.4-.1,1-1.2,4.8-.6,1.1-.5.5-.8.8-.2.3.2.2h.6l2.8-.5,1.5.1,2.5,1.3.6.9.4.9.2.9.2,1.3-.2,2-1.6,4.6,1.1.2,1.1-.2,2-.9.6-.1,4.8.2,2.5-.4,1.1-.4.7-.4.6-.2.3.2.4.3-.3,1.1-.3.6-.5,1-1.1,1.3-.1.4v.4l.4.6h.6l.9.3.3.3.1.5-.8.8-.1.6-.1.8.1,1.9-.1,1.4-.7,2.2-1,2.6-.3.5-.6.8-.6.6-1.5.8-.4.5-.3,1.2-.4.9-.7.8-.2.3-.1.8v2.1l.3,2.1.1.9v.5l-.6.8-.1.6.1.8.2,1.3-.1.6-.3.4-.7.5-.3.3-.2.4-.2.6-.1.9v1l.1.6.3.9.3.3,1.6.1,5.1-1.6Z"/></g></g></svg>