<svg xmlns="http://www.w3.org/2000/svg" viewBox="0 0 116.1 89.7"><defs><style>.cls-1{fill:#7c7c7c;stroke:#fff;stroke-linecap:round;stroke-linejoin:round;stroke-width:2px;}</style></defs><title>Saarland</title><g id="Ebene_2" data-name="Ebene 2"><g id="Ebene_1-2" data-name="Ebene 1"><path id="DEU1581" class="cls-1" d="M113,78.5l-.4.1-1.8,1.1-.5.8-.8,2.4-.6.9-.8.4-2.2.3-1,.3-.7.9L103.1,88l-.6.7-.7-.1-3-1.4-9.3-.1-1.7-.6L86,85.6l-4.1-3-.6-.1-1,1,.1.9.3.9-.1.8-3.4,2.2-2.4-1.9-1.2-4.6V75.9l-2.3-.1-6.8-3.9-1.2-.1-3.2.3L55.6,71l-1.1.3-.7,2.3.9,2.7.4,2.8-1.9,2.5-1.4.3-4.2-1.6H42.7l-1.3-.6L40,77.4l.4-2,.5-2.2-.7-2.6h-.4l-1.5,1h-.5l-.3-.6-.2-1.3-.4-1.1-.9-3-.5-.5L34,64.5l-.6-.4-.1-.7.2-1.7-.1-.7-7.3-7-1.8-2.2-.7-2,.6-1.5,2-.1.4-1.3-.3-1L21,40.2l-.8-1.1.2-.1v-.9l-.3-1.4-.7-1.4-1.8-1.8-10-5-1.2-.2-.9.3L3.4,30.1l-1.1.2-1-.1V29L1,23.9l.7-5.4.9-.1L17.1,17l12.5.7,7.1-3.3,2.5.3.4-.1,1.7-.3,16-7.4,8.4-5.5.6-.2.7.1,1.5.7,1,.8.8-.2L72.5,1l6.6,3.7.6.4.7.2,6.6.3.6.2L90,8.1,94,11l.6.7.7.2,1.1.2,2.1-.5,1-.4.9-.6.7-.6.6-.5.6.3.1,2.6.6,2.1,1.3,2.5.1,1.5v2.2l.1.8.3.5.4.1.7.2.2.9.1,1.2v.8l-.4.5-1.1.6-.8.5-.9.8-2.1,2.7-.6.5-.4.1-.5.8.7,2.6,2.6,3.1,1.8,2.3.3.7-.5.9,1.1.7,5.4.9,2.7,1,1,.6.6,1.5-.6,1.2-.2.9.4.8.1.5-.1.6-.5,1-.4.6-.4.5-1.3.9-.5.6-.2.5-.3,1.8-.1.7-.4.5-.7.6-.6.8-.3,1.2-.1,1.2-.4,1.3-.7,1.2-.7.8-.6.3H106l-.7-.1-.5.1-.8,1.7-.2.7v.8l.4,1.4.2.9.2,1.7.1.3,3.8,4.3,2.1,1.8,2.2-.1.2.5Z"/></g></g></svg>