<svg xmlns="http://www.w3.org/2000/svg" viewBox="0 0 342.1 262.7"><defs><style>.cls-1{fill:#7c7c7c;stroke:#fff;stroke-linecap:round;stroke-linejoin:round;stroke-width:2px;}</style></defs><title>Sachsen</title><g id="Ebene_2" data-name="Ebene 2"><g id="Ebene_1-2" data-name="Ebene 1"><path id="DEU1601" class="cls-1" d="M127.7,10.7l1.3.4,3,3.8,1.5,1,.9.4.5-.2.7-.5.4.1.4.2,1.4,1.2,1.3.9.3.5.3.7-.2,1.3-.2.8-.3.5v1.1l1.1,1.5,2.3,1.4.4.8.3,1.1.6,2.5.2,1.2v1l-.3.8-.4.4-1.2.7-.4.7.3,1.1.7.6.2,1.5-.3,1.9.1,2.5-.5,1.8-.6.8-1.2,1.1-.2.4-.2.4v.5l.3,1.3.6,1.5.6.5.7-1,.6-.5.5-.7,1.2.2.5-1.1,1.4.3.8.4,1.4,2.4,2-.6,10-3.5,1.7-.8,1-1.1,1.1-.4,1.4.1,5.1,2.5,1.6,1.3.8,1.1,1.3.7,1.5,1.2,1.8,2.7,1.3.5,1.3-.3,1-.1,1.5.2,5,1.7,12.7.9,3.8.4L223.2,55l.8.3,1.1.2.5.3.6-.2.4-.2,1.9-3.2,6.1-8.8,1.7-4,.2-1.4V36.7l.7-1.3,4.2-5.6,1.4-1.2,4.3-2.5,6.8-1.6,5.2.7,3.9,1.4,3.7,2.5,4.2-1,14.4-7.2,4.7-1.4,2.3-.1,2.4.5,2.7,1.6,4.7,2,4.7.2.3,1.8,2.4,2.6,7.2,2.4,2.3,1.6,2.4,1.4,5.1,1.6,2.5,1.1,1.7,1.4,2,2.1,1.1,2.4-.9,2.2,1.1,12v.2l.5,3.1.3,1.2,2,3.5,2.4,3,1.6,3.4-.5,5,.4.6.4.4-1.9,3.7-1.4,4.7-.9,4.8-.2,4.4-.2,2.2-.7,1.2-.8.8-.6,1.2-.2,1.7v3.3l-.4,2L329,119.1l-5.5,13.1-3.9,4.3-1.5,2.6v3.2l-1.8,4.6-1,2-1.1,1.2-1.7.5-2.4-.1-4-.9-4.2-3.2-1.5-.8-3.8-1.1-.5-1.3.4-3.1,1.8-4.3.6-2.3-.6-2H297l-6,2.5-1.2-1,.6-2.1,1.3-2.5.8-2.1.2-2.6-.3-1.6-.9-1.4-1.3-1.6-1.3-1.1-3-.7-1.3-1-1-1.4-.4-1-.2-1.1-.7-1.4-.9,2.4-1.2.6-4-.2-3,1.4-1.2-.1-1.2-.6-.7-1-.6-.9-.8-.8-4.1-1.3-3.4.5-2.7,2.7-1.5,5-1.2,1.8,1.3.8,3.7.5,2.1.9-.1.3-1,.7-.1,1.8,2.8,2.7,4,1.2,2.9,1.7-.6,4.3-3.2,2.7-8.6-.7-3.9.9-1.2,1.1-1.9,3-1.4,1.3-16.9,7.8-2.1.2-4-.6-2.1.5-1.2.8-1.7,2.2-1.1.8-1.4.2-1-.3h-.9l-1,1.3-.5,1.6.1,1.5.3,1.2-.1.9-.7,1.1-.6.2H215l-3.1,2-2,.4-5-.6-2.4.3-4.1,1.5-2.1.4h-9.8l-4.9.9-4.5,2.7,1.3,2.7-.4,2.3-1.5,1.9-1.8,1.3.6,1.4-.1,1-.6.8-1.1.7-1.9,2.3-1.8,1.7-2,.5-2.5-1.2-.7-.9-1.5-2.6-.6-.6-1.3-.5-.3.2-.1.6-.7.7-4,2.9-.7,1.1-1.1,3.5-2.3,1.2-1.8-.8-1.8-1.3-2.1-.2-3.6,9.7-1.6,2.9-2.7,2-5.7-.3-3.1,1-1,.3-1,.1-1-.1-1-.3-.8-.6-.9-.2-.9.2-.9.6-.7,7-.7,3.1-1.6,1.9-3.2,3.2-3.8-.2-10-6.2-1-.3-.9.2-1.6,1.1-.6.2-2-.3-1.7.2-1.8.6L91.1,217l-2.4,3.7-1.2,1.2-1.4.2L80.2,221l-8.1.6-4.4,1.3-3.8,3.3-.4.9-.2.8-.3.8.2.9v.7l-.2.6-.4.2h-1l-.4.2-1.3,1.2-3.2,1.8-1.2,1.2-3.4,6.1-1.2,1.3-1.2.9-.9,1.3-.3,2.7-2.1,2.8-.6,1.6-.4,3,.4,2.1.6,1.8v1.5l-1.5,1.1-1.9-.2-1.1-1.7-1.3-4.7-.1-.9-.2-1-.4-1.1-.5-.6-1.9-1.9-.3-.4-.1-.4.1-.4.6-.5.3-.1.5-.9v-.8l-.3-.6-.8-.5-3.1-.1-1.6-.4-1.2-1.1-.5-1.4.1-2.9-.7-1.6-2.1-1.4-5.2-.4-.8-1.5-3.1-.9-1.5.2-.4-.1-.9-.3-4.4-3-1.1-.4-.3-.4-.5-3.4.1-.7.2-.9-.4-.8L7.9,222l-1.2-1.9-.4-.6-.6-1-.9-.4-2.9.3L1,217v-.5l.3-.5.7-.7.9-.6,1.8-.6.3-.3.2-.5v-.8l.1-.6.9-.9.3-.7-.1-1.5-.2-.7-.3-.5-1.3-1-.3-.3-.2-.4v-.7l.2-.9.7-1.5,1.2-1.6,2.5-2,1.5-1.7.6-1.2.2-.3.5-.2.8-.2,1,.3.6.2.2.2.8,1.2.3.5.8.4,1,.1h.5l1.1-1,2.4-4.1,1.7-.4.9.3.6.6.4.2h.5l.5-.1,1.3-.6,1.1-.2.4-.4.5-.6.5-1.6.2-1.1-.1-3.4,1.9-2.4.7-1,.4-.5.5-.2h1.9l2.1.4,2.7-.2.7-.3,3.3-2.6.9-.9.4-.5,2.2-3.9-1-.4-1.5.1h-1l-.4-.2-.8-.4-.7-1.3-.5-1.5-.2-.9.2-1.2.2-.6.1-.6-.1-.6-.7-.6-.5-.2h-.5l-.6.2h-.8l-.1-.7.2-.9.8-2,.6-.6.6-.3h.6l.4-.1.4-.2.7-1,.8-.9.2-.4v-.5l-.3-.6-1.8-.7-1.4-1.5.2-1.8,7.9-2.3.9-.6,2.7-2.4.7-.4.8-.2,3.1-.3.8.2.4.3v.4l.8-.1,1.9-3,2.3-2.6,4.1-2.3.5-.5.3-1.5,1.6.7.5.1,2.4-.2,3.5.4H76l.8-.4.4.1.5.2.4.8.3.3h.3l.8-.9,1-1.6.3-.4.6-.5,1.2-.5v-1.3l-2.3-4.9L77.7,126l-3.1-1.8-1.5-.6-1.5-.8-1.5-1.5L69,118.7l-3-5.1-.3-.7-.9-5.2L48,102.6l-7,.7-4.6-.9-.5-.4-.3-.6-.3-1.4v-.8l-.1-.7-.5-.6-2-1.7-1-2.1.5-4.7-2.3-.6-1-.5L28.8,87l.7-.8.4-.8.2-.4.3-.9.1-.5-.4-5.1-.4-1.7-2.1-2.9-.1-3.6L27.1,69l-.4-.7-.1-1.1.1-.9.4-1,1-1.9.7-.8.6-.3,1.6-.1.7-.4.3-.4.3-1.1.1-.9.1-1.2-.2-1.4-.7-1.9-.5-.9-.4-1.4.1-2.8-.4-4-.5-1.3-.4-.7-.1-.5v-2l-.2-1.1.1-.5.5-.5,1.2-.9.3-.3.6-1.2.3-.3.7-.5.5-2V25.8l3-2.4.3-.4.3-.8.3-1.6.2-.4.3-.3.8.3,1,.6,1.7.7,3.3.4.9-.2L51,19l8-.9.5-.2.3-.8.2-.7.4-3.3,1-.5.8-.1,7.9.5,1.4,1L82,12.2l.5.1.5.8.5.1.7-.1L85.7,12l.8-.9.8-1.7,1.1-1.9L90,6.6l4.1.6,3.1,1.4,2.1-1L105,2.8l1-1.5,3.2-.3,1.2,2.6,1.3,1,1.7.6,1.3.2,2.4,1.2,1.5,1.9,1.4-.3.7-.7.5-.3.8-.3.7.3.8.6,2.3,2.4,1.9.5Z"/></g></g></svg>