<svg xmlns="http://www.w3.org/2000/svg" viewBox="0 0 375.7 318.9"><defs><style>.cls-1{fill:#7c7c7c;stroke:#fff;stroke-linecap:round;stroke-linejoin:round;stroke-width:2px;}</style></defs><title>Schleswigholstein</title><g id="Ebene_2" data-name="Ebene 2"><g id="Ebene_1-2" data-name="Ebene 1"><path id="DEU1579" class="cls-1" d="M89.1,192.1l-.4,1-1.4-.4L86.2,191l-.4-1.1-.1-.9.4-1.6.4-.5.9-.8.9-.1v1l-.1.9.2.8.4.8.6.4v.5l-.3.9v.8ZM3.6,167.5l-.5.4-.2-.8-.5-.1-.3-.9-.5-.5L1,165l1.6-.2.6.8.4,1.9Zm107.1-53.8-4.8.3-2.2-.8-1.2-2.1,1.2-.6.2-1.1-.5-1.1-.9-.9,3.4-3.3,3.9-1.8,4.3-.3,4.8,1.3-.5.3-.3.5v.9l.1,1-2,1.9-1.4,2.3-1.6,2.2Zm257.7-1.9,6.3,12.1-13.6-2.3-2,1.1.5.8.4.3-4.3.3-2.9-.5-1.2-1.5.2-3.8-.5-1.5-1.6-.6-2.8-.1-1.2.4-.8,1.1h-.8l-.4-1.3-.4-.8h-.5l-1.3.8-.3-2.6,3-7.6,4.3-4.2,5.2-.9,9.3,4.1,2.8,2.4.9,1.1,1.7,3.2ZM86.9,107.4l-3.1,1.8-2.4-.1L80,107.9l-1.1-2.7.7-3,1.9-1.5.8-.4.8-.5,7-3,.2,2-.9,4.6ZM53.3,68.3l-.2.2-.3-.1-.3.3-1.2,1.2-1.1,1.4,5.4,10.3,2.1,1.2-1.5,1.3-3.7,1.3L50,83.1l-2.1-3.8-2.1-2.9,3.1-6,2-2.1,2.4-.9v.9Zm23.2,2.9-.9,1.3-1.5.5-1.8-.2-1.7-.7-.9-.8-2.9,1.1-3.5-1.1L57,67.4l2.1-4L61.6,61l2.9-1.2,3.7-.3,6,.4,2.5,1.5,2,3.4v1.3l-.9,1.5-1.3,3.6Zm253.8,137-.1.7-.1,4.8.4.5.3.7,1.1.8,4.3,1.4v.3l-.3.1-.7.6-.6.4-3,.6h-.5l-.3-.1-.4-.5-.1-.7.3-.7-.1-.5-1.4-.4-.3-.2-.7-.1-2.6,1.8-5.4,5L318,224l-2.2,1-.6.5-.4.4-.9,2-.1.5-.3,1.6-.1.8.3.8.9,2.2.1.5.3,1.6.2,1.2.4,2.1-.1,1.9-.3,1.5-.9,4.2-.1.5.3.5.9.1h1l3,.9.4.3.9,1.1.8,1.5,2.4,3.1,1.1,1.1.9.5,1.5-.4h.8l1,.2,2,.7,1.2.8,1.4,1.5.5.7.3.7v1l.1,1.2,1,1.7.1,1-.1,1,.1,1-.4.9-.5.7-.9.4.1,3.1,1.3,5,.1,1.2-.1.8-.3.2-.8.5.1.1.8.2.4.3-.5.7-.6.5-.7,1.3-.5.6-.5.2-.3-.3-.2-.3L332,282l-.1-.5-.4-.9-.2-.3-.4-.3-.4-.2H330l-4.9.8-.5-.1-.4-.1-.9-.5h-.9l-.4.3-.1.5v.5l.3,1.5.2,1v.6l-.1.7-.7,1.7-.2.6-.1.5-.2,1.6.1.6-.2.3-1.7,1-4.9,3.9-.5.2-1.1.2-2.1.9-1.9.3-.4.3-.3.4-.4,1.2-.1.7-.3,1-.4.4-.5.2-1.3-.5h-.6l-.8.2-1.6.8-.6.5-.5.6-.1.5-.9,5.7-.1,1.2.1,1.1-.2.7-.4,1.2-1.1,1.8-1.2,1.7-3.4,1.4-4.5-1.5L273.8,307l-3.9-1.5-2.5-.1-.5-3.3-.3-.9H266l-.3.1-3.8-4.1-.8-.8-2.4-1.3-2.7-4.4-1-1.1-1.8-.5-1.2-.7-.3-.6-.2-1v-1.2l-.1-1.6-.7-3-.2-.9.1-.6.5-.5,1.9-.5,1.1-.4.5-.5.2-.7.1-2.5.2-2.3.2-.6.3-1,.2-.6.2-1.4-.2-.7-.3-.5-.4-.3-.6-.5-.3-1v-1.2l-.1-1-.1-.1-3.9-2.9-.3-.7-.2-.4.2-.5.4-1.2,1.1-2.2,1.2-1.7.2-.5.2-.9-.1-.5-.2-.2-.5-.2-.6-.1-.5.1-.7.4-1.9,1.8-.6.3-.6.1-5.4-1.3-.3.1-.4.2-.5.4-.4.7-1.4,5.9-.5.5-.9.6-1.4-.3h-.7l-.8.2-1.3.4-.6.4-.5.8-1,2.8-.5.5-.6.3h-.4l-3-.6-2.8.8-10.7,8.9-1.4.8-.8-.4-.2-.4-.1-.3.2-1.4.3-1.5-.1-.6-.3-.3-.9-.6-.2-.3-.9-.5-1.3-.4h-.5l-.4.1-.2.5-.2,1.4-.2.4-1,1.2-.2,1-.1,1.2-.2,1.1-.9,3.6-5.3-.7-4-1.6-7.8-5.1-3.6-4-1.3-5.9-.3-5-.4-3.2-1.1-1-5.1-2.9-1.6-.6-2.7-2.4-2.5-5.6-1.8-5.9-.1-3.7-4-1.6-6.9-5.9-4.1-2.6-4-.9-13.9-.3-4.1-2-2.8-.7-1.2.8-1.2,1.9-2.5-.9-3.8-2.9-3.7-4.5-9-18.4,4.2-1.9,2.1-.2,2.6.7,4.2,2.9,2.4.8,2.4-1.1.8-2.1.9-3.6.6-4v-2.9l-1.3-1.9-2-1.8-1.5-1.9.3-2.1v-1.2l-2.7-.8-3.8.7-3.5,1.7-2,2.2h-.7l-3-5.2-1.9-4.1-.3-.9.9-3.8,1.6-3.2,1.2-2.9-.8-2.9v-1.2l1.4-1.1,4.6-1.3,1.8-.2,1.2-.9,1.7-2.3,1.7-3,1.1-2.8-2.5.5-4.1,3.6-2.4,1,.2-.6.4-1.4.2-.6-3.3.4-5.7,1.8-3.4.4-3.8-.7-1.7.7-3.6,3.5-1.3.4-2.9-1L81.9,147l-2.3-4.1-.3-4.8,1.6-2,2.9-1.3,3.4-.7,2.5.1V133l-1.9-.5-1.5-1.4-1.5-.5L83.1,133l-.9-2.1.3-2.1,1-2,1.1-1.5,2.3,1,8.8-2.4h12l2.8-.7,2.3-1.5,4.6-4.1,4.2-2,1.8-1.4.7-3.1v-4.5l-2.7-4.3-8.9-9.7-1.3-2-.5-2-1-.8h-2.3l-2.3.7-1.2.8-.7-1.4,3.7-2.5-3.8-10.3-1.4-2.6-3.1-2-5.9-5.1L89,63.5V62.2l.6-3.4L88.2,55l-2.1-3.8-1.5-3.3-.6-5,.5-4.3L86,33.1l3.8,1.2,4,.2,7.4-2.8,2.5-.4,8.7,1.5,8.6,3.5,23.1,5.5,1.8,1.6.5,1.9.3,2.6.8,2.3,1.9.8h8l1.6-.3,1.1-1.1,1.5-.4,1.2-1.1,2-.5,2.2,2.1,1.8.2,1.7-.6H172l6.5-3.3,2-2.5,2.7-1.1,1.4-2.5,1.4-1.1.3,6.8,5.3,1.9,6.7.4,4.5,2,1.9,1.5,2.9,1.2,2.5,1.8,1.2,3.3,1.2,1.8,2.9-.5,4.9-1.9-.4-4,2.6-.1,3.5,2.2,2.5,3.2,1.5,6.4.7,1.5,1,1.4,2,2.2L232.3,71l-1.4-.2-1.4-.6-1-.3.1.4-2.7,2.2h-.4l-.7.5-.5-.1-.2.5-.1,1.7,1.6.1,2.9-.9,2.8-.1,1.6,2.2,1.2-1,1.3-.1.6,1.1-.8,2.7.5,2.6.1,3.7-.6,7.8-.6,3.3-.7,2.7-1.1,2.1-1.3,2-3.5,3.3-4.4,2.5-4.7,1.5-4.6.5v1.3l4.7,2.5,26.3-6.3,2,.7,6.6,5.8-2.2,2.2v2l.9,2.3.6,3-.7,2.5-1.5,2.3-2,1.7-1.9.6.3.4.4.3v.6l-.7,1.2,1.2,1.3.3,1.6-.4,1.7-1.1,1.8,2.4-.9,1.8-2.2,2.6-5.8,1.4-6.2.8-1.6,1.1-.7,4.1-.5,1.5-.8.7-1,.6-1.1,1-1,1.3-.4,4.6.4,2.4,1.2,6.6,5.3,17.1,7.7,9.7,9.2,4.5,1.1,5-.9,3.7-2.3,6.2-5.9,3.6-2.3,3.7-1.6,9.1-1.2v1.3l-2,.1h-2.7l1.9.9,1.9-.6,2.5,1.8,7.7-4.8,3.4,1.3-4,4.6-1.2,1.8-.7-.5-1.6-.8,1.2,3.1,1,7.4.8,3.6-.8,2.3.1,3.2.7,5.3-.4,3.2-1.1,1.7-1,1.2-.5,1.6-12.6,8.3-4.4,5.6-1.9,1.2-4.4,1.6-.9-.1-.9.9-.7-.6-.8-.8-1-.1-.8.6-.5.5-4.2,6.5-1.1,1.3v1.1l1.5,3.7,1.6,2.6,2,1.8,3,.9,4.2-.4,1.1.4.8,1.9.1,2.2.4,1.7,1.6.5.4.1ZM56.3,33.5l5.2,1.3,23.8-1.2-2.8,2.2L68.9,35l-1.7.9-3,2.4-1.6.5H55.1l-.7-.4-1-1.7-.9-.4h-1l-.7.3-3.3,2.3-.6.6-.3,1.3-.1,3.8-.4.7.4,10.4L46.2,59l-.5,2.6-.7.6-.7-2.7-.1-5L45.4,34l1.1-4L54.7,6.8,59.3,1l5.2,2.8-6.7.3-.8,1,3,.3.9,2.3-1,2.6-4.4,2.5-2.1,3.1-1.1,3.8,1,3.5L52.6,30Z"/></g></g></svg>