<svg xmlns="http://www.w3.org/2000/svg" viewBox="0 0 303.4 249"><defs><style>.cls-1{fill:#7c7c7c;stroke:#fff;stroke-linecap:round;stroke-linejoin:round;stroke-width:2px;}</style></defs><title>Thüringen</title><g id="Ebene_2" data-name="Ebene 2"><g id="Ebene_1-2" data-name="Ebene 1"><path id="DEU1577" class="cls-1" d="M260.8,97.5l7-.7,16.8,5.1.9,5.2.3.7,3,5.1,1.1,2.6,1.5,1.5,1.5.8,1.5.6,3.1,1.8,2.6,4.2,2.3,4.9v1.3l-1.2.5-.6.5-.3.4-1,1.6-.8.9h-.3l-.3-.3-.4-.8-.5-.2-.4-.1-.8.4h-.5l-3.5-.4-2.4.2-.5-.1-1.6-.7L287,134l-.5.5-4.1,2.3-2.3,2.6-1.9,3-.8.1v-.4l-.4-.3-.8-.2-3.1.3-.8.2-.7.4-2.7,2.4-.9.6-7.9,2.3-.2,1.8,1.4,1.5,1.8.7.3.6v.5l-.2.4-.8.9-.7,1-.4.2-.4.1h-.6l-.6.3-.6.6-.8,2-.2.9.1.7h.8l.6-.2h.5l.5.2.7.6.1.6-.1.6-.2.6-.2,1.2.2.9.5,1.5.7,1.3.8.4.4.2h1l1.5-.1,1,.4-2.2,3.9-.4.5-.9.9-3.3,2.6-.7.3-2.7.2-2.1-.4h-1.9l-.5.2-.4.5-.7,1-1.9,2.4.1,3.4-.2,1.1-.5,1.6-.5.6-.4.4-1.1.2-1.3.6-.5.1h-.5l-.4-.2-.6-.6-.9-.3-1.7.4-2.4,4.1-1.1,1h-.5l-1-.1-.8-.4-.3-.5-.8-1.2-.2-.2-.6-.2-1-.3-.8.2-.5.2-.2.3-.6,1.2-1.5,1.7-2.5,2-1.2,1.6-.7,1.5-.2.9v.7l.2.4.3.3,1.3,1,.3.5.2.7.1,1.5-.3.7-.9.9-.1.6v.8l-.2.5-.3.3-1.8.6-.9.6-.7.7-.3.5v.5l.9,1.4-2.6,1.4-1,.7-.5.3-2,.5-1.2.5-.3.3-.7.4-.6-.1-.2-.5.1-.4.2-.4-.2-.3-.3-.2-1.2-.4-.9-.7-.4-.8-.6-.1h-.7l-1.8.2-.8.2-.5.9-1.9.6-12.8,2.7-3.3-1.3-1.4-.1-.9.1-.4.2-.3.4-.3.9-.2.3-.3.3-.4.2-1.5.2-.8.3-.6-.2-.9-.4-1.7-1.5-.9-.5-.7-.6-.3-.4-.1-2.5-.2-1.4-.2-.5-.3-.4-.7-.3-.5-.1-.5.2-.4.2-.5-.1-.5-.2-.9-1-1-.9-1.1-.5-.2-.8-.1-.7.2-5.8.7-.5,1-.7.2-.3.1-.4-.3-1-1-1.8-1.8-.5-6.9-.4-1,1.2-.8.3-.6.4-.4.7-.2,1.4-.3.5-2.3,1.4-2.1.5-3,1.5.5,1.8.4.9v.7l-.3.6.2.8.4,1,.1.4.2,1.4v.6l-.4,3v.6l.2.5.4.7.1.5-.1.7.1.5.2.4.8,1,.3.8.1,1.4.3,1.2-.2.5-.8.2-.3.2v1.1l.2.9-.1.5-1,2.2-.2.8v.6l.6,1.1.2.4v.6l-.2.7-.7,1.1-.3,1,.2,1.3v.7l-.2.3-.4.3h-.8l-2.5-.7-.5-.4-1-.9-.5.3-1.1,2-5.4-5.1-.8-1.3,2.1-2.5.2-.5v-.4l-.3-.8-.5-.7-.4-.7-.9-1.5-.3-.2-.4-.2-.7.1-.3-.2-.4-.7-.3-1-.3-.3-.4.1-1.2.3-.4.4-.6.8-.3.3-.4.1-1.5.2-.5.1-1.5.7h-.5l-.4-.3-.5-.9-.6-.6-.8-.5-2.9-.4-.4.2-.2,1.3-.2.6-.3.2-.6-.5-.5-.4-3.7-5.5-.8-.2-.9.1-2.8,1h-.4l-.6-.1-.4-.6-.4-.7-.3-.3-.6-.3-.7.1-.5.3-.8.4-2-.4-.4.1-.4.1-1.4,1-.4.2-.8.2-.6-.1-1-.5-.6-.1-.5.3-.5.6L97.6,221l-.5,1-.3.4-.4.2-.6-.1-1.5-.7-.9.1-.5.6-.5.9-.4,4,.1,1.1.5.7.8.7,1.2.5,1.3.9.2.2,1.3,1.5.6.5.9.2,1.9-.1.8.3.2.4.4,1.2.6.7.8.4,1.9.5.4.2.4.8.2.9.1,1-.1.6-.2.8-.5.7-.6.2h-.7l-1.3-.3-1.5-.8-.5-.1-3.5.8h-.8l-.6-.1-.7-.5-.4-.1h-.5l-.8.9-.5,3.6v1.8l-.2.4-.5.1-.7-.1-1.5-.9-1.4-1.1-2.7-.8H81.5l-.9-1-.5-.9-.1-.8.3-.5.1-.5v-.7l-1-1.9-.4-1-.1-.6.2-.8.2-.6.1-.9.2-.6v-.8l-.1-1.1-.5-2.1-.2-1.1v-.8l-.1-.6-.4-.5-1.5-.8-.9-1.1-1.5-3.2-1.8.3-1,.8-.5.1-1-.2-1.4-.1-.3-.1-.2-.4.1-.6-.1-.5L68,221l-3-2.5-.5-.6-.4-.6-.3-.8-.3-.9-.3-.3-.7.2-1,.4-1,.2-2.1-.2-.4-.3-.4-.3-.6-1v-.6l.1-.5.8-.9.1-.4-.2-.6-2.9-2.4-.5-.5-.4-.7-.5-.7-.5-.6-1.6-1.3-.2-.4-.2-.4.1-1.6-.1-.8-.4-1-.1-.4-.5-.6-1-.5-8.8-3-.7-.5-.4-.5-.2-.9-.4-1.2-.2-1-.3-.4-.3-.4L37,191l-.6-.9-.6-.3-1-.1-5.3.5-.6-.1-.4-.3-.3-.7.1-1-.1-.5-.2-.3-1.8,1.3-5.9,6.7-.8-.1-.3-.5-.1-.4.2-.7.2-1,.9-3,.1-.8-.7-1.9-.2-.8-.1-1.1.2-3-.2-1.1-.2-.3V180l.3-.7,1.1-1.2.7-.4.5-.1.3.3.4-.7-.3-4-1.2-3.1-.2-.5-.4-.3L20,169l-1.1-.3-1.9-.2-1.8-.6-.4-.1-.8.1-.7.3-1.4.9-.8.4-1.7.5-.4.2-.4.7-.1.5.1.5.2.4.9,1,.2.5.1.3-.4.8-.3.9-.3.3-.4.1-.5.1-1-.2-.9-.3-1.7-1.2-.5-.1H3.6l-.8.4-.8.3-.5-.1-.3-.5L1,173.5l.1-1.5-.1-.8.1-.9.3-.9.7-1.5.6-.7.4-.4.8-.4.3-.4.7-1v-.4l-.2-.8.1-.8.4-1.2,1.5-2.7.4-1,.1-.6.1-1.1V155l-.4-.8-1.2-1.4.6-1.6.5-.2.5-.3.3-.1.5.4h.2l.2-.4-.2-1.4L8,147.7l.1-1.1.2-.5.5-1.3v-.9l.3-.4.6-.4,1.6-.7,2.2-.3.6-.3,1-.5.7-.2h.5l.5-.3.3-.6.1-1.7-.4-1.3.3-.8.4-.6,2.9-3.5-.9-1.1-.4-.6-.5-1.6-.4-.7-.3-.5-1.3-1.1-1.1-.8-.5-.2h-.4l-.6.1-.6.5-.4.6-.2.4-.6.7-.3.2h-.4l-.3-.4-.1-.9.1-2-.2-.6-.3-.2-.5.6-.3.3H9.5l-.3-.3-.2-.5.1-1.1.1-.5.3-.5.8-.2.5-.1.4.2.4.4.3.1,3.9.4,1.3-.2,1.7-.5.4-.5.1-.9-.3-2.1-.6-1.2-.5-.7-.7-.6-.3-1.1.3-2.3,2.7-2,1.3-.3h3.3l1.2.5H26l1.2-.5h.3l.2.1.1.4-.2.8.2.6.6.4.4.2,1.1.1,2.4-.5,2.5.2.3-.2.3-.5,1.6-3.7.1-.6-.2-.8-.2-.5-.8-1.1-.4-.8-.2-.3-.4-.2-1.4-.1-.5-.1-.3-.2-.6-.6-.4-.3-.4-.1-1.1-.1-.4-.1-.1-.6v-1l.3-1.7.3-1.2.6-1.4,1.4-2.3.4-1.5V92l-.4-.3-2-.4-.4-.1-.3-.2-.2-.4-.5-1.3-.2-.3-.7-.6.2-.3.7-.5,2.4-.7,1.1-.1.8.1.4.5.9,1.2.1.4-.2.6.1.4.6.5.3.3.1.8.2.3h.2l.5-.7.5-3.6v-1l.1-.8.6-1.7L39.3,82l.3-.9v-.7l-.2-.3-1.5-.6-2.1-1.2-1.2-1.1-1.5-.9-1-.2-1,.1-.6-.1-.7-.3-1-.7-.6-.2-1.1-.1-.6-.2-.7-.3-.6-.1-.4-.2-.7-.5-.5-.1-.4-.1-.5-.3-.3-.5-.3-2-.2-.8-1.8-1.4-.2-.4-.3-.6v-.9l.6-1.4-.2-.5-.3-.5-1-.4L17,63.4l-2.4-1-.3-.1-1.2.1h-.5L12,62l-.7-.6L10.5,60l-.7-.5-.5-.2-.4.1-.4-.2-.2-.7.1-1.6-.3-1.6-.3-.9L7.5,54l-.6-.6L6.7,53l-.1-.4-.2-1.1L6,50.1v-.7l.3-1.2.4-.8,2.1-1.7,5.5-4.6,1.3-1.5.6-.5,1.6-.8.5-.6.5-.8h.5l2.2,1.9.3.2.5-.1.6-.8.6-1,1.7-.4,5.4.2-.3-.9v-.6l.3-.3,1.5-.4.5-.3.5-.5.8-1.6.2-.8-.2-.6v-.6l.1-.4.5-.7.4-.3.6-.3,1.1-.1.5.1.4.3.1.7.5.5.5.2h1l.8-.4,4.7-3,.4-.1.5-.2.4-.4.3-1.2.1-.7.3-.5.6-.6L49.5,22l1-.4L51,21l.1-.5.4-.5,1.7-1.3.8-1.1,1.2-3.2.2-1,.2-1v-.5l-.2-.5-.4-.7.1-.7.4-.2.7-.2h1.7l1.5-.3.8-.4,1,.2,5.2,2.8,3.9,3.3,1.3.1,3.4-.2.5-.1,5.2-2.7.9-.1h.7l1.5,1.7.7.4.6-.2.3-.6.2-1.5-.1-.7-.2-.4-.2-.2-1-1.2-.7-1.1-.6-1.1.2-1L84.9,4l5.3-3L92,2.1l9.8-.3.7.2.9.4L105.8,4l.9.4.5.1h2.7l1.4,1.3,3.6,1.5,1.4.1.5.4.4.6.5,1.5.2.9v.8l-.4.5-.5.3h-.5l-.4-.1-.9-.5-.8-.1-.4.2-.3.3-.2.4.1,1L114,15l1.1,3,.7,1.3.6.8.7.5.3.5.1.7-.3,2.8v.5l.4,1.2,1.3,2.7,1,1.4.1.5.1.6-.7,3.4-.1,1.3v1.4l.9,1.7L123,41l16.9,2,4.6-.1,10.1,1.5,2.8,1,5.7,4.5,3,5.7,6.2,9.3-.9,2.1-1,1.5-1.3,1.2-2.7,1.6-4.9.8-.7.3-.6.7-.4.5-.4.9.3.9.9,1.2,2.5,1.6,2.3.9,1.2,1.2,2.3,4,.6,2.3.2,1.3v1.7l-.2.4-.7.3-.3.5.3,2,.4,1.2.5.9.6.6,1.2.6.6.2,6,.3.4-.1.8-.5.9-.8.7-.4.5-.2,5,.8,2.9-.2,2.1.3.8-.1.9-.4,2.2-.5.5.1.7.3,1.7,1.2.4.6.3.8v1.6l.2,1.8.9,1.7.3,1.2.6.8.7,1.1.1.5.3,1.5.4.8.5.5.7.5.8.3,1.4-1.1,8.8-.6.9-.2,1.3.2,2.4,1.8,5.3,2.5,1,.8.6.7.5,1.2.2.8.5.7.4.4,3.6,2,.2,1.5.3.3h.7l3.7-.4,2-.6.3-.2h.9l5.7,2h.6l.6-.1,1-.6.9-.8h.5l.6.2,2,2,.8.6.8,1.5.9.1,2-1.7-.4-1.4.2-1.5,3.1-3.8.7-1,2.6-4.8v-1.2l-.5-1.1-.5-.5-.5-.4-1.7-.7-.2-.6v-1.1l.5-2.5,1.7-3,.2-.4-.2-1.3Z"/></g></g></svg>